<?xml version="1.0" encoding="UTF-8"?>
<svg width="60px" height="60px" viewBox="0 0 60 60" version="1.1" xmlns="http://www.w3.org/2000/svg" xmlns:xlink="http://www.w3.org/1999/xlink">
    <!-- Generator: sketchtool 59 (101010) - https://sketch.com -->
    <title>2D7A6300-6125-45C0-89B3-A9F7D8257341</title>
    <desc>Created with sketchtool.</desc>
    <g id="Page-1" stroke="none" stroke-width="1" fill="none" fill-rule="evenodd">
        <g id="03_liste_button" transform="translate(-68.000000, -246.000000)">
            <g id="arrivage" transform="translate(68.000000, 246.000000)">
                <circle id="Oval" fill="#F2F7FF" cx="30" cy="30" r="30"></circle>
                <g id="149455064616354821374533" transform="translate(14.000000, 15.000000)" fill-rule="nonzero">
                    <polygon id="Path" fill="#FF9500" points="27.785411 10.2126712 27.785411 24.1708904 16.0958904 29.2465753 4.40636986 24.1708904 4.40636986 10.2126712"></polygon>
                    <polygon id="Path" fill="#FBAB01" points="16.0958904 29.2465753 27.785411 24.1708904 27.785411 10.2126712 16.0958904 10.2126712"></polygon>
                    <polygon id="Path" fill="#FF9500" points="16.0958904 15.2884247 4.40636986 10.2126712 16.0958904 5.1369863 27.785411 10.2126712"></polygon>
                    <polygon id="Path" fill="#FAC100" points="16.0958904 15.2884247 19.7488356 19.710411 31.4383562 14.634726 27.785411 10.2126712"></polygon>
                    <polygon id="Path" fill="#FAC100" points="16.0958904 15.2884247 12.4429452 19.710411 0.753424658 14.634726 4.40636986 10.2126712"></polygon>
                    <polygon id="Path" fill="#FAC100" points="27.785411 10.2126712 31.4383562 5.82910959 19.7488356 0.753424658 16.0958904 5.1369863 12.4429452 0.753424658 0.753424658 5.82910959 4.40636986 10.2126712 16.0958904 5.1369863"></polygon>
                    <path d="M32.0016438,14.1695205 L28.7345205,10.214726 L31.9993836,6.29691781 C32.0721233,6.20979452 32.1234932,6.10684932 32.1495205,5.99636986 C32.1755479,5.88589041 32.175411,5.77082192 32.1492466,5.66041096 C32.1230137,5.54993151 32.0714384,5.44712329 31.9984932,5.36013699 C31.9256164,5.27308219 31.8334247,5.20424658 31.7293151,5.15910959 L20.0397945,0.0837671233 C19.895,0.0206027397 19.7335616,0.00619178082 19.579863,0.0427123288 C19.4261644,0.0792260274 19.2884247,0.164691781 19.1875342,0.286232877 L16.0958904,3.9959589 L13.0040411,0.285890411 C12.9030137,0.164458904 12.7653425,0.0790753425 12.6116438,0.0425684932 C12.4579452,0.00606164384 12.2965753,0.0203972603 12.1517808,0.0834246575 L0.462315068,5.15910959 C0.358171233,5.20424658 0.265993151,5.27308219 0.19309589,5.36013699 C0.120205479,5.44712329 0.0686027397,5.54993151 0.0423835616,5.66041096 C0.0161712329,5.77082192 0.0160616438,5.88589041 0.0420753425,5.99636986 C0.0680958904,6.10684932 0.119506849,6.20979452 0.192246575,6.29691781 L3.45710959,10.214726 L0.189986301,14.1695205 C0.117835616,14.2568493 0.0669657534,14.359726 0.0414041096,14.4700685 C0.0158356164,14.580411 0.0162671233,14.695137 0.0426643836,14.805274 C0.0690616438,14.915411 0.120705479,15.0179452 0.193506849,15.1046575 C0.266315068,15.1914384 0.358287671,15.2600685 0.462178082,15.3052055 L3.67567123,16.7004795 L3.67567123,24.1712329 C3.67565753,24.3136301 3.71724658,24.4529452 3.79533562,24.5719863 C3.87341781,24.6910959 3.98458904,24.784726 4.11519178,24.8415068 L15.804726,29.9168493 C15.8058219,29.9173288 15.8070548,29.9174658 15.8081507,29.9179452 C15.8507534,29.9360959 15.8950685,29.9500685 15.940411,29.959726 C15.9430137,29.960274 15.9454795,29.9615753 15.9480137,29.9621233 C16.0454795,29.9821233 16.1460274,29.9821233 16.2435616,29.9621233 C16.2461644,29.9615753 16.2485616,29.960274 16.2511644,29.959726 C16.2964384,29.9500685 16.3407534,29.9360959 16.3834247,29.9179452 C16.3845205,29.9174658 16.3857534,29.9173288 16.3868493,29.9168493 L28.0763699,24.8415068 C28.2069863,24.784726 28.3181507,24.6910959 28.3962329,24.5719863 C28.4743151,24.4529452 28.5158904,24.3136301 28.5158904,24.1712329 L28.5158904,16.7004795 L31.7293836,15.3052055 C31.8332877,15.2600685 31.9252055,15.1914384 31.9980137,15.1046575 C32.0708219,15.0179452 32.1224658,14.915411 32.1489041,14.805274 C32.175274,14.695137 32.1756849,14.580411 32.150137,14.4700685 C32.124589,14.359726 32.0736986,14.2568493 32.0015753,14.1695205 L32.0016438,14.1695205 Z M19.9596575,1.64171233 L30.2525342,6.11089041 L27.5744521,9.32472603 L17.2815753,4.85554795 L19.9596575,1.64171233 Z M25.9509589,10.2128082 L16.0958904,14.4919178 L6.24082192,10.2128082 L16.0958904,5.93356164 L25.9509589,10.2128082 Z M12.2321233,1.64171233 L14.9102055,4.85554795 L4.61717808,9.32472603 L1.93909589,6.11089041 L12.2321233,1.64171233 Z M4.61964384,11.1019178 L14.9141781,15.5718493 L12.2299315,18.8215068 L1.93539726,14.3514384 L4.61964384,11.1019178 Z M5.1369726,17.3347945 L12.1518493,20.3806849 C12.2972603,20.4436986 12.4591781,20.4577397 12.6132877,20.4207534 C12.7673973,20.3837671 12.905274,20.2977397 13.0062329,20.1755479 L15.3653425,17.319726 L15.3653425,28.1329452 L5.1369726,23.6917808 L5.1369726,17.3347945 Z M27.0547945,23.6917808 L16.8265068,28.1329452 L16.8265068,17.319863 L19.1856164,20.1756849 C19.2865753,20.2978767 19.4244521,20.3839041 19.5785616,20.4208904 C19.7326027,20.4578767 19.894589,20.4438356 20.04,20.3808219 L27.0547945,17.3349315 L27.0547945,23.6917808 Z M19.9621918,18.8215068 L17.2779452,15.5718493 L27.5724658,11.1019178 L30.2567808,14.3514384 L19.9621918,18.8215068 Z" id="Shape" fill="#000000"></path>
                </g>
            </g>
        </g>
    </g>
</svg>