<?xml version="1.0" encoding="UTF-8"?>
<svg width="60px" height="60px" viewBox="0 0 60 60" version="1.1" xmlns="http://www.w3.org/2000/svg" xmlns:xlink="http://www.w3.org/1999/xlink">
    <!-- Generator: sketchtool 59 (101010) - https://sketch.com -->
    <title>BA95409D-F8D2-4336-B2FB-65A3B9E2DE4D</title>
    <desc>Created with sketchtool.</desc>
    <g id="Page-1" stroke="none" stroke-width="1" fill="none" fill-rule="evenodd">
        <g id="03_liste_button" transform="translate(-68.000000, -511.000000)">
            <g id="cession" transform="translate(68.000000, 511.000000)">
                <circle id="Oval" fill="#F2F7FF" cx="30" cy="30" r="30"></circle>
                <g id="100902354616354821504533" transform="translate(14.000000, 15.000000)" fill-rule="nonzero">
                    <path d="M27.6635748,7.52334112 L27.6635748,26.2149533 C27.6635748,27.0081308 27.3485047,27.7688551 26.7876168,28.3296729 C26.2267991,28.8905607 25.4660748,29.2056308 24.6728972,29.2056308 L6.72897196,29.2056308 C5.93579439,29.2056308 5.17507009,28.8905607 4.61424533,28.3296729 C4.05338551,27.7688551 3.73829439,27.0081308 3.73829439,26.2149533 L3.73829439,7.52334112 L27.6635748,7.52334112 Z" id="Path" fill="#065FBB"></path>
                    <path d="M8.2242757,29.2056308 L8.2242757,17.2429907 C8.2242757,17.0446963 8.30306075,16.8545327 8.44324766,16.7142757 C8.58350467,16.5740888 8.77366822,16.4953037 8.97196262,16.4953037 L14.2056308,16.4953037 C14.4039252,16.4953037 14.5940888,16.5740888 14.7342757,16.7143458 C14.8744626,16.8545327 14.9532477,17.0446963 14.9532477,17.2429907 L14.9532477,29.2056308 L8.2242757,29.2056308 Z" id="Path" fill="#EAEFF0"></path>
                    <path d="M21.6822897,16.4953037 L20.1869159,16.4953037 C19.3610748,16.4953037 18.6916121,17.1647664 18.6916121,17.9906075 L18.6916121,19.4859813 C18.6916121,20.3118224 19.3610748,20.981285 20.1869159,20.981285 L21.6822897,20.981285 C22.5081308,20.981285 23.1775935,20.3118224 23.1775935,19.4859813 L23.1775935,17.9906075 C23.1775935,17.1647664 22.5081308,16.4953037 21.6822897,16.4953037 Z" id="Path" fill="#EAEFF0"></path>
                    <path d="M30.3949065,8.13490654 C30.6185047,8.73588785 30.6667991,9.40023364 30.465,10.0088551 C30.1851869,10.851729 29.614486,11.5674533 28.8550234,12.0279673 C28.0956308,12.4884112 27.1971028,12.6635047 26.3203037,12.5218458 C25.4435748,12.380257 24.6458411,11.9311682 24.0700234,11.2550467 C23.4942056,10.5789252 23.1778037,9.71985981 23.1775935,8.8317757 C23.1775935,9.82324766 22.7837383,10.7741355 22.0826636,11.4751402 C21.3815888,12.176215 20.4307009,12.5701402 19.439229,12.5701402 C18.4478271,12.5701402 17.4969393,12.176215 16.7958645,11.4751402 C16.0947897,10.7741355 15.7009346,9.82324766 15.7009346,8.8317757 C15.7009346,9.82324766 15.3070794,10.7741355 14.6060047,11.4751402 C13.9049299,12.176215 12.9540421,12.5701402 11.9626402,12.5701402 C10.9711682,12.5701402 10.0202804,12.176215 9.31920561,11.4751402 C8.61813084,10.7741355 8.2242757,9.82324766 8.2242757,8.8317757 C8.22406542,9.71992991 7.90773364,10.5789953 7.33191589,11.2551869 C6.75609813,11.9313785 5.95829439,12.3804673 5.08156542,12.5220561 C4.20475234,12.663715 3.30618224,12.4886215 2.54674065,12.0281075 C1.78730607,11.5675935 1.21659112,10.8517991 0.936799065,10.0088551 C0.735070093,9.40016355 0.783364486,8.73588785 1.00689252,8.13490654 L3.3760514,1.76824766 C3.48242523,1.48235047 3.67369626,1.23581776 3.92419626,1.06174065 C4.17469626,0.887663551 4.47245327,0.794369159 4.7775,0.794369159 L26.6244393,0.794369159 C26.929486,0.794369159 27.227243,0.887663551 27.477757,1.06174065 C27.728271,1.23581776 27.919486,1.48235047 28.0258879,1.76824766 L30.3949065,8.13490654 Z" id="Path" fill="#FD3730"></path>
                    <path d="M9.41179907,0.794369159 L8.3153271,7.00759346 C8.25476636,7.35077103 8.22420561,7.69857477 8.22420561,8.04707944 L8.22420561,8.8317757 C8.22420561,9.82324766 8.61806075,10.7741355 9.31913551,11.4752103 C10.0202103,12.176285 10.9710981,12.5701402 11.9625701,12.5701402 C12.9540421,12.5701402 13.9049299,12.176285 14.6060047,11.4752103 C15.3070794,10.7741355 15.7009346,9.82324766 15.7009346,8.8317757 L15.7009346,0.794369159 L9.41179907,0.794369159 Z" id="Path" fill="#EAEFF0"></path>
                    <path d="M28.0259579,1.76824766 C27.9195561,1.48235047 27.7283411,1.23583178 27.4778271,1.06175467 C27.2273131,0.88767757 26.9295561,0.794369159 26.6245093,0.794369159 L21.9900701,0.794369159 L23.0865421,7.00759346 C23.1470327,7.3510514 23.1776636,8.64483645 23.1776636,8.64483645 L23.1776636,8.8317757 C23.1778037,9.71992991 23.4941355,10.5790654 24.0699533,11.2553271 C24.6458411,11.9315187 25.4435748,12.3806776 26.3204439,12.5222664 C27.197243,12.6639252 28.0958411,12.4887617 28.8553037,12.0282477 C29.6147664,11.5676636 30.1854673,10.8518692 30.4652103,10.0088551 C30.6669393,9.40016355 30.6186449,8.73588785 30.3951168,8.13490654 L28.0259579,1.76824766 Z" id="Path" fill="#EAEFF0"></path>
                    <path d="M31.0959112,7.87436916 L31.0955607,7.87436916 L28.7264019,1.50756308 C28.5656075,1.07954439 28.2784346,0.710565421 27.9029439,0.449663551 C27.5275234,0.188754673 27.0815187,0.0482803738 26.6242991,0.046885514 L4.77728972,0.046885514 C4.32004907,0.0482803738 3.87406542,0.188775701 3.49858178,0.449705607 C3.12310514,0.710635514 2.83591822,1.07964953 2.67518692,1.50770327 L0.306028037,7.87450935 C0.011635514,8.66747664 -0.0164018692,9.50908879 0.227172897,10.2443692 C0.442058411,10.8936449 0.802899533,11.4850234 1.28196729,11.9730841 C1.76103505,12.4611449 2.34559346,12.8329206 2.99074766,13.0598832 L2.99074766,26.2149533 C2.99198832,27.2060047 3.38623598,28.1561215 4.08701636,28.8569159 C4.78780374,29.5577103 5.73792056,29.951986 6.72897196,29.9532477 L24.6728972,29.9532477 C25.6639486,29.951986 26.6140654,29.5577804 27.3149299,28.8569159 C28.0157243,28.1561215 28.4099299,27.2060047 28.4111916,26.2149533 L28.4111916,13.059743 C29.0563318,12.8327804 29.6409112,12.4610047 30.12,11.9729439 C30.5990187,11.4848832 30.9598598,10.8935047 31.1747664,10.244229 C31.4186916,9.5089486 31.3905841,8.66733645 31.0959112,7.87436916 Z M22.3502804,7.13768692 C22.403271,7.4378271 22.4299411,7.74196262 22.4299411,8.04672897 L22.4299411,8.8317757 C22.4317991,9.22570093 22.3558879,9.61619159 22.2064486,9.98067757 C22.0570093,10.3452336 21.836986,10.6766355 21.5591355,10.9558879 C21.281215,11.2350701 20.9508645,11.4567056 20.5870794,11.6078972 C20.2232944,11.7590888 19.8332243,11.8369626 19.439229,11.8369626 C19.0453037,11.8369626 18.6552336,11.7590888 18.2914486,11.6078972 C17.9276636,11.4567056 17.5973131,11.2350701 17.3193925,10.9558879 C17.0415421,10.6766355 16.8215187,10.3452336 16.6720794,9.98067757 C16.5226402,9.61619159 16.446729,9.22570093 16.448587,8.8317757 L16.448587,1.54204907 L21.3628037,1.54204907 L22.3502804,7.13768692 Z M8.97196248,8.04672897 C8.97189252,7.74182243 8.99852804,7.43754673 9.05151869,7.13733645 L10.0391355,1.54204907 L14.9533178,1.54204907 L14.9533178,8.8317757 C14.9533178,9.22450935 14.8759346,9.61338785 14.7256542,9.97626168 C14.5753738,10.3391355 14.3550701,10.668785 14.0773598,10.9464953 C13.7996495,11.2242056 13.47,11.4445093 13.1071262,11.5947897 C12.7442523,11.7450701 12.3553738,11.8224533 11.9626402,11.8224533 C11.5699065,11.8224533 11.181028,11.7450701 10.8181542,11.5947897 C10.4552804,11.4445093 10.1256308,11.2242056 9.84792056,10.9464953 C9.57021028,10.668785 9.34990654,10.3391355 9.19962617,9.97626168 C9.04934579,9.61338785 8.97196248,9.22450935 8.97196248,8.8317757 L8.97196248,8.04672897 Z M1.64649533,9.77369159 C1.50925234,9.36014019 1.5311215,8.87067757 1.70747664,8.39558411 L4.07663551,2.0291285 C4.13025,1.88641822 4.22601869,1.7633972 4.35121963,1.67640421 C4.47641355,1.58941822 4.62511682,1.54258178 4.77757009,1.54211916 L8.52056075,1.54211916 L7.57885514,6.87778037 C7.51086449,7.26385514 7.47665888,7.65504673 7.47665888,8.04707944 L7.47665888,8.8317757 C7.47658879,9.54231308 7.22348131,10.2296495 6.7628271,10.7706308 C6.3021729,11.3116121 5.66397196,11.6709813 4.96247664,11.7843224 C4.26103037,11.8975935 3.54213785,11.7575467 2.93454673,11.3891355 C2.3269486,11.0207243 1.87034579,10.4480607 1.64649533,9.77369159 L1.64649533,9.77369159 Z M8.97196262,28.4579439 L8.97196262,17.2429907 L14.2056308,17.2429907 L14.2056308,28.4579439 L8.97196262,28.4579439 Z M26.9158879,26.2149533 C26.915257,26.8096262 26.6786916,27.3797664 26.2582009,27.800257 C25.8377103,28.2207477 25.2675701,28.4573131 24.6728972,28.4579439 L15.7009346,28.4579439 L15.7009346,17.2429907 C15.700514,16.8465421 15.5428738,16.4664252 15.2625701,16.1860514 C14.9821963,15.9057477 14.6020794,15.7480374 14.2056308,15.7476869 L8.97196262,15.7476869 C8.57551402,15.7480374 8.1953972,15.9057477 7.91502336,16.1860514 C7.63471963,16.4664252 7.47707944,16.8465421 7.47665888,17.2429907 L7.47665888,28.4579439 L6.72897196,28.4579439 C6.13429907,28.4573131 5.56415888,28.2207477 5.14366822,27.800257 C4.72314953,27.3797664 4.48663318,26.8096262 4.48598131,26.2149533 L4.48598131,13.317757 C5.2264486,13.3174766 5.95535047,13.1339019 6.60764019,12.7834346 C7.25992991,12.4329673 7.81535047,11.926472 8.2242757,11.3091589 C8.63299065,11.9266822 9.18841121,12.4333178 9.84070093,12.783785 C10.4930607,13.1343224 11.2220327,13.317757 11.9626402,13.317757 C12.7031776,13.317757 13.4321495,13.1343224 14.0845093,12.783785 C14.7367991,12.4333178 15.2922196,11.9266822 15.7009346,11.3091589 C16.1096495,11.9266822 16.6650701,12.4333178 17.3173598,12.783785 C17.9697196,13.1343224 18.6986916,13.317757 19.439229,13.317757 C20.1798364,13.317757 20.9088084,13.1343224 21.5611682,12.783785 C22.2134579,12.4333178 22.7688785,11.9266822 23.1775935,11.3091589 C23.5865187,11.926472 24.1419393,12.4329673 24.794229,12.7834346 C25.4465187,13.1339019 26.1754206,13.3174766 26.9158879,13.317757 L26.9158879,26.2149533 Z M29.7553738,9.77369159 C29.5314953,10.4480607 29.0749065,11.0207243 28.4673364,11.3891355 C27.8596963,11.7575467 27.1408178,11.8975935 26.4393925,11.7843224 C25.7378972,11.6709813 25.0996963,11.3116121 24.6390421,10.7706308 C24.1783879,10.2296495 23.9252804,9.54231308 23.9252103,8.8317757 L23.9252103,8.04672897 C23.9252103,7.65469626 23.8910047,7.26350467 23.823014,6.87742991 L22.8813084,1.54204907 L26.6242991,1.54204907 C26.7767523,1.54250467 26.9254206,1.58931308 27.0506075,1.67626402 C27.1757944,1.76320794 27.2715421,1.88617991 27.3252336,2.02884813 L29.6938318,8.39530374 C29.8707477,8.87067757 29.8926869,9.36 29.7553738,9.77369159 Z" id="Shape" fill="#000000"></path>
                    <path d="M22.4299065,15.7476869 L19.439229,15.7476869 C19.0427804,15.7481075 18.6626636,15.9057477 18.3822897,16.1860514 C18.101986,16.4664252 17.9443458,16.8465421 17.9439252,17.2429907 L17.9439252,20.2336682 C17.9443458,20.6301168 18.101986,21.0102336 18.3822897,21.2906075 C18.6626636,21.5709112 19.0427804,21.7285514 19.439229,21.728972 L22.4299065,21.728972 C22.8263551,21.7285514 23.206472,21.5709112 23.4868458,21.2906075 C23.7671495,21.0102336 23.9247897,20.6301168 23.9252103,20.2336682 L23.9252103,17.2429907 C23.9247897,16.8465421 23.7671495,16.4664252 23.4868458,16.1860514 C23.206472,15.9057477 22.8263551,15.7481075 22.4299065,15.7476869 L22.4299065,15.7476869 Z M19.439229,20.2336682 L19.439229,17.2429907 L22.4299065,17.2429907 L22.431028,20.2336682 L19.439229,20.2336682 Z" id="Shape" fill="#000000"></path>
                </g>
            </g>
        </g>
    </g>
</svg>