<?xml version="1.0" encoding="UTF-8"?>
<svg width="60px" height="60px" viewBox="0 0 60 60" version="1.1" xmlns="http://www.w3.org/2000/svg" xmlns:xlink="http://www.w3.org/1999/xlink">
    <!-- Generator: sketchtool 59 (101010) - https://sketch.com -->
    <title>0CD2232D-8C59-4B5F-B2F1-C49333417BA6</title>
    <desc>Created with sketchtool.</desc>
    <g id="Page-1" stroke="none" stroke-width="1" fill="none" fill-rule="evenodd">
        <g id="03_liste_button" transform="translate(-68.000000, -375.000000)">
            <g id="controle" transform="translate(68.000000, 375.000000)">
                <circle id="Oval-Copy" fill="#F2F7FF" cx="30" cy="30" r="30"></circle>
                <g id="207391576016354821254533" transform="translate(13.000000, 13.000000)" fill-rule="nonzero">
                    <path d="M22.4014426,18.5432383 C22.4014426,18.3385872 22.3201319,18.1423277 22.1753787,17.9976468 C22.0306979,17.852966 21.8344383,17.7716553 21.6297872,17.7716553 L8.51208085,17.7716553 C8.30742979,17.7716553 8.11117021,17.852966 7.96648936,17.9976468 C7.82173617,18.1423277 7.74042553,18.3385872 7.74042553,18.5432383 L7.74042553,29.7319149 L22.4014426,29.7319149 L22.4014426,18.5432383 Z" id="Path" fill="#FAC100"></path>
                    <polygon id="Path" fill="#F87600" points="17 17.7716553 17 22.4014426 15.0708979 21.2439957 13.1418681 22.4014426 13.1418681 17.7716553"></polygon>
                    <path d="M24.7162638,5.42553191 L8.51208085,5.42553191 C8.0859234,5.42553191 7.74042553,5.77102979 7.74042553,6.19718723 L7.74042553,13.9134511 C7.74042553,14.3396085 8.0859234,14.6851064 8.51208085,14.6851064 L24.7162638,14.6851064 C25.1424213,14.6851064 25.4879191,14.3396085 25.4879191,13.9134511 L25.4879191,6.19718723 C25.4879191,5.77102979 25.1424213,5.42553191 24.7162638,5.42553191 Z" id="Path" fill="#065FBB"></path>
                    <path d="M4.6538766,31.8186468 L7.50625957,31.3432255 C7.9329234,31.2720426 8.37123404,31.3379447 8.75818298,31.5313106 L11.1259574,32.7154511 C12.2242298,33.2645872 13.4956128,33.3549404 14.6605106,32.966617 L23.7898723,29.9234723 C23.9624766,29.8658894 24.1217702,29.7740894 24.2580596,29.6535702 C24.3944213,29.5330511 24.5051021,29.3863447 24.5834468,29.2220596 C24.6617915,29.0577745 24.7061362,28.8794553 24.7140213,28.6976638 C24.721834,28.5158723 24.6929702,28.3342979 24.6290213,28.1639362 L24.6290213,28.1639362 C24.5202936,27.8740681 24.3154979,27.6301362 24.0487787,27.4730128 C23.7819872,27.315817 23.4694766,27.254834 23.1631872,27.3001915 L16.2982979,28.3169362 C16.4694553,28.1480936 16.5906979,27.9353404 16.6486426,27.7020426 L16.6486426,27.7020426 C16.7272766,27.3872894 16.6865489,27.0545957 16.5342,26.7681277 C16.3819234,26.4817319 16.1288766,26.2618894 15.8239617,26.1510638 L11.0191106,24.5768638 C10.3035191,24.3424085 9.53142979,24.3443617 8.81699574,24.5825064 L4.6538766,25.9702128 L4.6538766,31.8186468 Z" id="Path" fill="#FFD188"></path>
                    <path d="M29.3461234,9.10093191 L26.3902213,10.4233149 C25.7954383,10.6894553 25.1511745,10.8269745 24.4995319,10.8269745 L16.9015447,10.8269745 C16.6056723,10.8269745 16.3193489,10.7220085 16.0935745,10.5307404 C15.8678,10.3394723 15.7171872,10.0743447 15.6685021,9.78245106 L15.6685021,9.78245106 C15.6410128,9.61744255 15.6468723,9.4486 15.6858638,9.28590638 C15.724783,9.12321277 15.7960383,8.96999574 15.8952894,8.83529787 C15.9945404,8.7006 16.1197617,8.58724255 16.2636468,8.50188085 C16.4075319,8.41651915 16.5671149,8.36088936 16.7328468,8.33831915 L21.1130596,7.74172766 C21.3606809,7.70801702 21.596366,7.61469787 21.7999319,7.4698 C22.0034979,7.32490213 22.1687957,7.13276596 22.2817191,6.90981277 L23.0327574,5.42553191 L11.3044936,5.42553191 L12.5038255,3.91441277 C12.9240511,3.38496043 13.4551021,2.9539417 14.0596511,2.6516383 L17.0424638,1.28440426 C18.0121149,0.799600426 19.1210936,0.670422128 20.1761787,0.919374468 L29.3461234,2.9587234 L29.3461234,9.10093191 Z" id="Path" fill="#FFD188"></path>
                    <path d="M3.88222128,24.3304723 L1.5674,24.3304723 C1.14122809,24.3304723 0.795744681,24.6759702 0.795744681,25.1021277 L0.795744681,32.0467362 C0.795744681,32.4728936 1.14122809,32.8183915 1.5674,32.8183915 L3.88222128,32.8183915 C4.30839319,32.8183915 4.6538766,32.4728936 4.6538766,32.0467362 L4.6538766,25.1021277 C4.6538766,24.6759702 4.30839319,24.3304723 3.88222128,24.3304723 Z" id="Path" fill="#065FBB"></path>
                    <path d="M32.4326,1.5674 L30.1177787,1.5674 C29.6916213,1.5674 29.3461234,1.9128834 29.3461234,2.33905532 L29.3461234,9.28366383 C29.3461234,9.70982128 29.6916213,10.0553191 30.1177787,10.0553191 L32.4326,10.0553191 C32.8587574,10.0553191 33.2042553,9.70982128 33.2042553,9.28366383 L33.2042553,2.33905532 C33.2042553,1.9128834 32.8587574,1.5674 32.4326,1.5674 Z" id="Path" fill="#065FBB"></path>
                    <path d="M23.1730255,26.529766 L23.1730255,18.543383 C23.1726638,18.1341532 23.0099702,17.7418511 22.7206085,17.4524894 C22.4313191,17.1631277 22.039017,17.000434 21.6297872,17 L8.51208085,17 C8.1029234,17.000434 7.71062128,17.1631277 7.42125957,17.452417 C7.13197021,17.7417787 6.9692766,18.1340809 6.96884255,18.5432383 L6.96884255,24.385234 L5.40578298,24.9060851 C5.35894979,24.5347617 5.17847489,24.1931702 4.89810511,23.9451872 C4.61773532,23.6972043 4.25665532,23.5598298 3.88236596,23.5587447 L1.56747234,23.5587447 C1.15825702,23.5591064 0.765897021,23.7218 0.476535319,24.0111617 C0.187173617,24.3005234 0.0244510638,24.6928979 0.0240893617,25.1021277 L0.0240893617,32.0468085 C0.0244944681,32.455966 0.187209787,32.8482681 0.476535319,33.1376298 C0.765860851,33.4269191 1.15816298,33.5896128 1.56732766,33.5900468 L3.88222128,33.5900468 C4.21408298,33.5889617 4.53669957,33.4806681 4.80202979,33.2812979 C5.06736723,33.082 5.26121787,32.8023319 5.35471064,32.4838894 L7.63343404,32.1044638 C7.89914043,32.0596128 8.17222553,32.1006298 8.41297447,32.2216553 L10.780966,33.4058681 C11.4149574,33.7247447 12.1058085,33.9148553 12.8137319,33.9650596 C13.521583,34.0153362 14.2324,33.924766 14.9050936,33.6986298 L24.0344553,30.6558468 C24.3054426,30.5654936 24.5554511,30.4213915 24.7695064,30.2322213 C24.9835617,30.0430511 25.1573234,29.8126468 25.2803021,29.5548255 C25.4033532,29.2970043 25.4731617,29.0170468 25.4855319,28.7316638 C25.4979021,28.4462085 25.452617,28.1612596 25.3524255,27.8937447 C25.1869106,27.4602809 24.8846,27.0926468 24.4913574,26.8464723 C24.0980426,26.6003702 23.6352085,26.4891106 23.1730255,26.529766 L23.1730255,26.529766 Z M3.88229362,32.0468085 L1.5674,32.0468085 L1.5674,25.1021277 L3.88229362,25.1021277 L3.88229362,32.0468085 Z M16.2283447,18.5432383 L16.2283447,21.0386213 L15.4680468,20.5823702 C15.3481064,20.5102468 15.2108766,20.4721957 15.0708979,20.4721957 C14.9309915,20.4721957 14.7937617,20.5102468 14.6738213,20.5823702 L13.9135234,21.0386213 L13.9135234,18.5432383 L16.2283447,18.5432383 Z M8.51200851,18.5432383 L12.3702128,18.5432383 L12.3702128,22.4013702 C12.3702128,22.5379489 12.4065277,22.6719957 12.4752511,22.789983 C12.5440468,22.9079702 12.6429362,23.0055574 12.7617915,23.072834 C12.8805745,23.1400383 13.0151277,23.174617 13.1517064,23.1728809 C13.2882128,23.1711447 13.4218255,23.1332383 13.5389447,23.0629957 L15.0708979,22.1434043 L16.6028511,23.0627064 C16.7199702,23.1329489 16.853583,23.1708553 16.9900894,23.1725915 C17.1266681,23.1743277 17.2612213,23.1397489 17.3800766,23.0725447 C17.4988596,23.0052681 17.5977489,22.9076809 17.6665447,22.7896936 C17.7352681,22.6717064 17.771583,22.5376596 17.771583,22.4010809 L17.771583,18.5432383 L21.6297872,18.5432383 L21.6297872,26.747366 L17.4519106,27.366383 C17.4486553,26.9384894 17.3137404,26.5219532 17.0654681,26.1733447 C16.8172681,25.8247362 16.4677915,25.560983 16.0644936,25.4178936 L11.2594979,23.8434043 C10.3862043,23.5592511 9.44498298,23.5616383 8.57313617,23.8502043 L8.51200851,23.8705319 L8.51200851,18.5432383 Z M23.8873872,28.8898 C23.853966,28.9606936 23.8065106,29.0239915 23.7477702,29.0758596 C23.6891021,29.1278 23.6204511,29.1671532 23.5460128,29.1916043 L14.4166511,32.2344596 C13.9362383,32.3962851 13.4284809,32.4611021 12.9228936,32.4251489 C12.417234,32.3892681 11.9237277,32.2533404 11.4710213,32.0253234 L9.10259574,30.8411106 C8.57038723,30.5738851 7.96685106,30.4832426 7.37959149,30.5822766 L5.42553191,30.9078085 L5.42553191,26.5264383 L9.0613617,25.3145915 C9.61874468,25.129617 10.2207617,25.1280979 10.7790851,25.3101064 L15.5604255,26.8759872 C15.6876,26.9222851 15.792783,27.0146638 15.8551404,27.1348213 C15.9174979,27.2549787 15.9325447,27.3940894 15.8972426,27.5248085 C15.8618681,27.6554553 15.7788213,27.7680894 15.6643787,27.8405021 C15.5500085,27.9128426 15.4125617,27.9396085 15.279383,27.9155191 L10.0553191,26.965617 C9.95527234,26.9466638 9.85240426,26.9476766 9.75279149,26.968583 C9.65310638,26.9895617 9.55855745,27.03 9.47464255,27.0876553 C9.39065532,27.1453106 9.31896596,27.2190255 9.26362553,27.3045319 C9.20828511,27.3900383 9.17045106,27.4856723 9.15222128,27.5858638 C9.13406383,27.6860553 9.13587234,27.7888511 9.15757447,27.8883915 C9.17934894,27.9878596 9.22051064,28.0821191 9.27881702,28.1656 C9.3371234,28.2490809 9.41141702,28.3201915 9.49735745,28.3748809 C9.58329787,28.4294979 9.67922128,28.4666085 9.77955745,28.4840426 L15.0034043,29.4338723 C15.2848085,29.4851617 15.5738085,29.4774936 15.8521021,29.4113745 C16.1303957,29.3452553 16.3919064,29.2220596 16.6201404,29.0496723 L23.2769787,28.0635277 C23.408566,28.0445021 23.5426851,28.0709787 23.6572723,28.1385447 C23.7717872,28.2060383 23.8598255,28.3106426 23.9069191,28.4349957 C23.9347702,28.5081319 23.9474298,28.5861872 23.9441021,28.6643872 C23.9407021,28.7425872 23.9213872,28.8193404 23.8873872,28.8898 L23.8873872,28.8898 Z" id="Shape" fill="#000000"></path>
                    <path d="M32.4326,0.795744681 L30.1177064,0.795744681 C29.766783,0.796410213 29.426566,0.916574894 29.1530468,1.13644638 C28.8795277,1.35631064 28.6890553,1.66277362 28.6130255,2.00534894 L20.3536298,0.168625532 C19.1315106,-0.120519149 17.8467447,0.0260570213 16.7211277,0.58306383 L13.7145149,1.96151064 C13.0098468,2.3151034 12.3905404,2.81780426 11.899566,3.4347234 L10.9316511,4.6538766 L8.51208085,4.6538766 C8.1029234,4.65431787 7.71062128,4.81704766 7.42133191,5.10636596 C7.13204255,5.39568426 6.9692766,5.78795745 6.96884255,6.19711489 L6.96884255,13.9134511 C6.9692766,14.3226085 7.13204255,14.7149106 7.42133191,15.0042 C7.71062128,15.2934894 8.1029234,15.4562553 8.51208085,15.4566894 L24.7163362,15.4566894 C25.1254936,15.4562553 25.5177957,15.2934894 25.8070851,15.0042 C26.0963745,14.7149106 26.2591404,14.3226085 26.2595745,13.9134511 L26.2595745,11.2995745 C26.4096085,11.247634 26.5589191,11.1928 26.7052638,11.1272596 L28.8548596,10.1656383 C28.9965745,10.3693489 29.185383,10.5358766 29.4052255,10.6508979 C29.6251404,10.7659915 29.8695064,10.8262511 30.1177064,10.8266128 L32.4326,10.8266128 C32.8417574,10.8261787 33.2340596,10.6634128 33.5233489,10.3741234 C33.8126383,10.084834 33.9754043,9.69253191 33.9758383,9.28337447 L33.9758383,2.33869362 C33.9753319,1.92958681 33.812566,1.53739319 33.5232766,1.24813277 C33.2339149,0.958879574 32.8416851,0.796185957 32.4326,0.795744681 L32.4326,0.795744681 Z M24.7163362,13.9134511 L8.51208085,13.9134511 L8.51208085,6.19718723 L21.7775064,6.19718723 L21.5932553,6.56113191 C21.5368298,6.67260851 21.4541447,6.7686766 21.3523617,6.84108936 C21.2505787,6.91350213 21.1326638,6.96008936 21.0088894,6.97687234 L16.6288936,7.57346383 C16.1209915,7.64254894 15.6582298,7.9019617 15.3343617,8.29925532 C15.0104936,8.69654894 14.8496085,9.20206383 14.8842596,9.71351064 C14.9189106,10.2248851 15.1464936,10.7040681 15.5210723,11.0540511 C15.8955787,11.404034 16.3890851,11.5986298 16.9016894,11.5985574 L24.4996766,11.5985574 C24.5725234,11.5985574 24.6439234,11.590166 24.7163362,11.5872723 L24.7163362,13.9134511 Z M26.0753234,9.71886383 C25.5798638,9.94131064 25.0428085,10.0559702 24.4996766,10.0553219 L16.9016894,10.0553219 C16.7803745,10.0553219 16.663617,10.009383 16.5749277,9.92662553 C16.4862383,9.84386809 16.4323447,9.73051064 16.4240979,9.60948511 C16.4157787,9.48845957 16.4538298,9.36880851 16.530366,9.27476596 C16.6069745,9.1807234 16.7164255,9.11923404 16.836583,9.10281277 L21.2165787,8.50622128 C21.5880468,8.45572766 21.9416468,8.3156766 22.2470681,8.09829362 C22.552417,7.8808383 22.8004,7.59248936 22.9696766,7.25798723 L23.7209319,5.77406809 C23.7805404,5.65648596 23.8089702,5.52559319 23.803617,5.39388298 C23.7982638,5.26217277 23.7592,5.13402894 23.6902596,5.02169149 C23.6212468,4.90935404 23.5246723,4.81656298 23.4096511,4.75217277 C23.2946298,4.68778255 23.1649957,4.6539417 23.0331915,4.6538766 L12.9022043,4.6538766 L13.1083021,4.39410213 C13.4530043,3.95984255 13.8871915,3.60486085 14.3812766,3.35326809 L17.3876723,1.97489362 C18.1989702,1.57036596 19.1265191,1.46349745 20.0084936,1.67294468 L28.5744681,3.57766809 L28.5744681,8.60091489 L26.0753234,9.71886383 Z M32.4326,9.28366383 L30.1177064,9.28366383 L30.1177064,2.33898298 L32.4326,2.33898298 L32.4326,9.28366383 Z" id="Shape" fill="#000000"></path>
                </g>
            </g>
        </g>
    </g>
</svg>