<?xml version="1.0" encoding="UTF-8"?><svg version="1.1" width="60px" height="60px" viewBox="0 0 60.0 60.0" xmlns="http://www.w3.org/2000/svg" xmlns:xlink="http://www.w3.org/1999/xlink"><defs><clipPath id="i0"><path d="M360,0 L360,900 L0,900 L0,0 L360,0 Z"></path></clipPath><clipPath id="i1"><path d="M30,0 C46.5685425,0 60,13.4314575 60,30 C60,46.5685425 46.5685425,60 30,60 C13.4314575,60 0,46.5685425 0,30 C0,13.4314575 13.4314575,0 30,0 Z"></path></clipPath><clipPath id="i2"><path d="M24.0666667,0 C25.1712362,1.53715886e-15 26.0666667,0.8954305 26.0666667,2 L26.0666667,30.8666667 C26.0666667,31.9712362 25.1712362,32.8666667 24.0666667,32.8666667 L2,32.8666667 C0.8954305,32.8666667 1.87533573e-15,31.9712362 0,30.8666667 L0,2 C-3.57315355e-16,0.8954305 0.8954305,-1.57345071e-15 2,0 L24.0666667,0 Z"></path></clipPath><clipPath id="i3"><path d="M22.1,0 L22.1,27.7666667 C22.1,28.3925894 21.5925894,28.9 20.9666667,28.9 L0,28.9 L0,1.13333333 C0,0.507410617 0.507410617,0 1.13333333,0 L22.1,0 Z"></path></clipPath><clipPath id="i4"><path d="M21.5333333,0 L21.5333333,28.3333333 L0,28.3333333 L0,0 L21.5333333,0 Z"></path></clipPath><clipPath id="i5"><path d="M19.8333333,0 L19.8333333,25.5 C19.8333333,26.1259227 19.3259227,26.6333333 18.7,26.6333333 L0,26.6333333 L0,0 L19.8333333,0 Z"></path></clipPath><clipPath id="i6"><path d="M14.7333333,0 L14.7333333,4.53333333 C14.7333333,5.15925605 14.2259227,5.66666667 13.6,5.66666667 L1.13333333,5.66666667 C0.507410617,5.66666667 0,5.15925605 0,4.53333333 L0,0 L14.7333333,0 Z"></path></clipPath><clipPath id="i7"><path d="M13.0333333,0 L13.0333333,3.4 C13.0333333,4.02592272 12.5259227,4.53333333 11.9,4.53333333 L0,4.53333333 L0,0 L13.0333333,0 Z"></path></clipPath><clipPath id="i8"><path d="M1.7,0 C2.63888407,0 3.4,0.761115925 3.4,1.7 C3.4,2.63888407 2.63888407,3.4 1.7,3.4 C0.761115925,3.4 0,2.63888407 0,1.7 C0,0.761115925 0.761115925,0 1.7,0 Z"></path></clipPath><clipPath id="i9"><path d="M1.7,0 C1.74703333,0 1.79066667,0.0102 1.83713333,0.0136 C2.28233008,0.512381767 2.3922187,1.22648318 2.11757673,1.83603645 C1.84293477,2.44558971 1.23522794,2.83636939 0.566666667,2.8333509 C0.519633333,2.8333509 0.476,2.82313333 0.429533333,2.81973333 C0.154174679,2.5116161 0.00135144224,2.11322729 0,1.7 C0,0.761115925 0.761115925,0 1.7,0 Z"></path></clipPath><clipPath id="i10"><path d="M1.7,0 C2.63888407,0 3.4,0.761115925 3.4,1.7 C3.4,2.63888407 2.63888407,3.4 1.7,3.4 C0.761115925,3.4 0,2.63888407 0,1.7 C0,0.761115925 0.761115925,0 1.7,0 Z"></path></clipPath><clipPath id="i11"><path d="M1.7,0 C2.63888407,0 3.4,0.761115925 3.4,1.7 C3.4,2.63888407 2.63888407,3.4 1.7,3.4 C0.761115925,3.4 0,2.63888407 0,1.7 C0,0.761115925 0.761115925,0 1.7,0 Z"></path></clipPath><clipPath id="i12"><path d="M1.7,0 C2.63888407,0 3.4,0.761115925 3.4,1.7 C3.4,2.63888407 2.63888407,3.4 1.7,3.4 C0.761115925,3.4 0,2.63888407 0,1.7 C0,0.761115925 0.761115925,0 1.7,0 Z"></path></clipPath><clipPath id="i13"><path d="M12.4666667,0 L12.4666667,1.13333333 L0,1.13333333 L0,0 L12.4666667,0 Z"></path></clipPath><clipPath id="i14"><path d="M10.2,0 L10.2,1.13333333 L0,1.13333333 L0,0 L10.2,0 Z"></path></clipPath><clipPath id="i15"><path d="M12.4666667,0 L12.4666667,1.13333333 L0,1.13333333 L0,0 L12.4666667,0 Z"></path></clipPath><clipPath id="i16"><path d="M10.2,0 L10.2,1.13333333 L0,1.13333333 L0,0 L10.2,0 Z"></path></clipPath><clipPath id="i17"><path d="M12.4666667,0 L12.4666667,1.13333333 L0,1.13333333 L0,0 L12.4666667,0 Z"></path></clipPath><clipPath id="i18"><path d="M10.2,0 L10.2,1.13333333 L0,1.13333333 L0,0 L10.2,0 Z"></path></clipPath><clipPath id="i19"><path d="M12.4666667,0 L12.4666667,1.13333333 L0,1.13333333 L0,0 L12.4666667,0 Z"></path></clipPath><clipPath id="i20"><path d="M10.2,0 L10.2,1.13333333 L0,1.13333333 L0,0 L10.2,0 Z"></path></clipPath><clipPath id="i21"><path d="M1.7,0 C1.74703333,0 1.79066667,0.0102 1.83713333,0.0136 C2.28233008,0.512381767 2.3922187,1.22648318 2.11757673,1.83603645 C1.84293477,2.44558971 1.23522794,2.83636939 0.566666667,2.8333509 C0.519633333,2.8333509 0.476,2.82313333 0.429533333,2.81973333 C0.154174679,2.5116161 0.00135144224,2.11322729 0,1.7 C0,0.761115925 0.761115925,0 1.7,0 Z"></path></clipPath><clipPath id="i22"><path d="M1.7,0 C1.74703333,0 1.79066667,0.0102 1.83713333,0.0136 C2.28233008,0.512381767 2.3922187,1.22648318 2.11757673,1.83603645 C1.84293477,2.44558971 1.23522794,2.83636939 0.566666667,2.8333509 C0.519633333,2.8333509 0.476,2.82313333 0.429533333,2.81973333 C0.154174679,2.5116161 0.00135144224,2.11322729 0,1.7 C0,0.761115925 0.761115925,0 1.7,0 Z"></path></clipPath><clipPath id="i23"><path d="M1.7,0 C1.74703333,0 1.79066667,0.0102 1.83713333,0.0136 C2.28233008,0.512381767 2.3922187,1.22648318 2.11757673,1.83603645 C1.84293477,2.44558971 1.23522794,2.83636939 0.566666667,2.8333509 C0.519633333,2.8333509 0.476,2.82313333 0.429533333,2.81973333 C0.154174679,2.5116161 0.00135144224,2.11322729 0,1.7 C0,0.761115925 0.761115925,0 1.7,0 Z"></path></clipPath></defs><g transform="translate(-68.0 -771.0)"><g clip-path="url(#i0)"><g transform="translate(68.0 771.0)"><g clip-path="url(#i1)"><polygon points="0,0 60,0 60,60 0,60 0,0" stroke="none" fill="#F2F7FF"></polygon></g><g transform="translate(17.0 13.0)"><g transform="translate(0.0 1.1333333333333329)"><g clip-path="url(#i2)"><polygon points="0,0 26.0666667,0 26.0666667,32.8666667 0,32.8666667 0,0" stroke="none" fill="#5E87CA"></polygon></g></g><g transform="translate(0.0 1.1333333333333329)"><g clip-path="url(#i3)"><polygon points="0,0 22.1,0 22.1,28.9 0,28.9 0,0" stroke="none" fill="#77A0D3"></polygon></g></g><g transform="translate(2.2666666666666675 3.4000000000000004)"><g clip-path="url(#i4)"><polygon points="0,0 21.5333333,0 21.5333333,28.3333333 0,28.3333333 0,0" stroke="none" fill="#E2E7F6"></polygon></g></g><g transform="translate(2.2666666666666675 3.3999999999999986)"><g clip-path="url(#i5)"><polygon points="0,0 19.8333333,0 19.8333333,26.6333333 0,26.6333333 0,0" stroke="none" fill="#F2F2F2"></polygon></g></g><g transform="translate(5.666666666666666 0.0)"><g clip-path="url(#i6)"><polygon points="0,0 14.7333333,0 14.7333333,5.66666667 0,5.66666667 0,0" stroke="none" fill="#474747"></polygon></g></g><g transform="translate(5.666666666666667 0.0)"><g clip-path="url(#i7)"><polygon points="0,0 13.0333333,0 13.0333333,4.53333333 0,4.53333333 0,0" stroke="none" fill="#686868"></polygon></g></g><g transform="translate(4.533333333333334 7.9333333333333345)"><g clip-path="url(#i8)"><polygon points="0,0 3.4,0 3.4,3.4 0,3.4 0,0" stroke="none" fill="#474747"></polygon></g></g><g transform="translate(4.533333333333334 7.933333333333334)"><g clip-path="url(#i9)"><polygon points="0,0 2.26701647,0 2.26701647,2.83336826 0,2.83336826 0,0" stroke="none" fill="#686868"></polygon></g></g><g transform="translate(4.533333333333334 13.6)"><g clip-path="url(#i10)"><polygon points="0,0 3.4,0 3.4,3.4 0,3.4 0,0" stroke="none" fill="#474747"></polygon></g></g><g transform="translate(4.533333333333334 19.266666666666666)"><g clip-path="url(#i11)"><polygon points="0,0 3.4,0 3.4,3.4 0,3.4 0,0" stroke="none" fill="#474747"></polygon></g></g><g transform="translate(4.533333333333334 24.93333333333333)"><g clip-path="url(#i12)"><polygon points="0,0 3.4,0 3.4,3.4 0,3.4 0,0" stroke="none" fill="#474747"></polygon></g></g><g transform="translate(9.633333333333336 27.2)"><g clip-path="url(#i13)"><polygon points="0,0 12.4666667,0 12.4666667,1.13333333 0,1.13333333 0,0" stroke="none" fill="#C8CDED"></polygon></g></g><g transform="translate(9.633333333333335 24.93333333333333)"><g clip-path="url(#i14)"><polygon points="0,0 10.2,0 10.2,1.13333333 0,1.13333333 0,0" stroke="none" fill="#C8CDED"></polygon></g></g><g transform="translate(9.633333333333336 21.53333333333333)"><g clip-path="url(#i15)"><polygon points="0,0 12.4666667,0 12.4666667,1.13333333 0,1.13333333 0,0" stroke="none" fill="#C8CDED"></polygon></g></g><g transform="translate(9.633333333333335 19.26666666666667)"><g clip-path="url(#i16)"><polygon points="0,0 10.2,0 10.2,1.13333333 0,1.13333333 0,0" stroke="none" fill="#C8CDED"></polygon></g></g><g transform="translate(9.633333333333336 15.86666666666667)"><g clip-path="url(#i17)"><polygon points="0,0 12.4666667,0 12.4666667,1.13333333 0,1.13333333 0,0" stroke="none" fill="#C8CDED"></polygon></g></g><g transform="translate(9.633333333333335 13.599999999999998)"><g clip-path="url(#i18)"><polygon points="0,0 10.2,0 10.2,1.13333333 0,1.13333333 0,0" stroke="none" fill="#C8CDED"></polygon></g></g><g transform="translate(9.633333333333336 10.2)"><g clip-path="url(#i19)"><polygon points="0,0 12.4666667,0 12.4666667,1.13333333 0,1.13333333 0,0" stroke="none" fill="#C8CDED"></polygon></g></g><g transform="translate(9.633333333333335 7.933333333333334)"><g clip-path="url(#i20)"><polygon points="0,0 10.2,0 10.2,1.13333333 0,1.13333333 0,0" stroke="none" fill="#C8CDED"></polygon></g></g><g transform="translate(4.533333333333334 13.6)"><g clip-path="url(#i21)"><polygon points="0,0 2.26701647,0 2.26701647,2.83336826 0,2.83336826 0,0" stroke="none" fill="#686868"></polygon></g></g><g transform="translate(4.533333333333333 19.26666666666667)"><g clip-path="url(#i22)"><polygon points="0,0 2.26701647,0 2.26701647,2.83336826 0,2.83336826 0,0" stroke="none" fill="#686868"></polygon></g></g><g transform="translate(4.533333333333334 24.93333333333333)"><g clip-path="url(#i23)"><polygon points="0,0 2.26701647,0 2.26701647,2.83336826 0,2.83336826 0,0" stroke="none" fill="#686868"></polygon></g></g></g></g></g></g></svg>