<?xml version="1.0" encoding="UTF-8"?>
<svg width="60px" height="60px" viewBox="0 0 60 60" version="1.1" xmlns="http://www.w3.org/2000/svg" xmlns:xlink="http://www.w3.org/1999/xlink">
    <!-- Generator: sketchtool 59 (101010) - https://sketch.com -->
    <title>995541D5-7724-40C2-B4E4-6C8FD765CE4A</title>
    <desc>Created with sketchtool.</desc>
    <g id="Page-1" stroke="none" stroke-width="1" fill="none" fill-rule="evenodd">
        <g id="03_liste_button" transform="translate(-233.000000, -245.000000)">
            <g id="demarque" transform="translate(233.000000, 245.000000)">
                <circle id="Oval" fill="#F2F7FF" cx="30" cy="30" r="30"></circle>
                <g id="68712708816354821494533" transform="translate(14.000000, 15.000000)" fill-rule="nonzero">
                    <path d="M5.36256,3.49336 L30.37296,3.49336 C30.50072,3.49336 30.62688,3.52208 30.74208,3.57736 C30.85736,3.63264 30.95864,3.71304 31.03864,3.81272 C31.11856,3.9124 31.17512,4.0288 31.20408,4.15328 C31.23304,4.27768 31.23376,4.40712 31.206,4.53184 L28.13072,18.37024 C28.04648,18.74928 27.83552,19.08832 27.53264,19.33128 C27.22968,19.57424 26.85304,19.70664 26.46472,19.70664 L8.96552,19.70664 L5.36256,3.49336 Z" id="Path" fill="#065FBB"></path>
                    <path d="M9.91368,29.09336 C11.32752,29.09336 12.47368,27.9472 12.47368,26.53336 C12.47368,25.11952 11.32752,23.97336 9.91368,23.97336 C8.49984,23.97336 7.35368,25.11952 7.35368,26.53336 C7.35368,27.9472 8.49984,29.09336 9.91368,29.09336 Z" id="Path" fill="#EAEFF0"></path>
                    <path d="M26.55368,29.09336 C27.96752,29.09336 29.11368,27.9472 29.11368,26.53336 C29.11368,25.11952 27.96752,23.97336 26.55368,23.97336 C25.13984,23.97336 23.99368,25.11952 23.99368,26.53336 C23.99368,27.9472 25.13984,29.09336 26.55368,29.09336 Z" id="Path" fill="#EAEFF0"></path>
                    <path d="M28.96376,18.55544 L32.0388,4.71752 C32.0944,4.468 32.0932,4.2092 32.03536,3.96016 C31.97744,3.7112 31.8644,3.4784 31.70448,3.27896 C31.54456,3.07952 31.34184,2.91856 31.11136,2.80792 C30.88088,2.69736 30.62848,2.64 30.37288,2.64 L6.0472,2.64 L5.92376,2.0844 C5.79984,1.51456 5.484,1.00456 5.02912,0.63968 C4.57416,0.2748 4.007728,0.077224 3.42456,0.0799602629 L0.93336,0.0799602629 C0.820608,0.078912 0.708752,0.100176 0.604264,0.142568 C0.499776,0.18496 0.404728,0.24764 0.324608,0.326992 C0.244488,0.40632 0.180896,0.5008 0.137488,0.60488 C0.094088,0.70888 0.071736,0.82056 0.071736,0.93336 C0.071736,1.04608 0.094088,1.15776 0.137488,1.26176 C0.180896,1.36584 0.244488,1.46032 0.324608,1.53968 C0.404728,1.61896 0.499776,1.68168 0.604264,1.72408 C0.708752,1.76648 0.820608,1.78776 0.93336,1.78664 L3.42456,1.78664 C3.619008,1.78568 3.80788,1.8516 3.959576,1.97328 C4.111272,2.09488 4.216592,2.26496 4.25792,2.45496 L8.88544,23.27896 C8.20888,23.49064 7.61488,23.90736 7.18552,24.47144 C6.75616,25.03544 6.51264,25.71896 6.48872,26.42744 C6.46472,27.13592 6.66152,27.83432 7.05184,28.42608 C7.44208,29.01784 8.00664,29.47368 8.66728,29.73064 C9.32792,29.98752 10.05216,30.03288 10.73968,29.86024 C11.4272,29.68768 12.04416,29.30568 12.50512,28.76712 C12.96608,28.22864 13.2484,27.56016 13.31288,26.85424 C13.37736,26.14832 13.22096,25.43976 12.8652,24.82664 L23.60232,24.82664 C23.2272,25.47704 23.07728,26.23304 23.17568,26.97736 C23.27408,27.72168 23.61536,28.41272 24.14656,28.94328 C24.67776,29.47392 25.3692,29.8144 26.1136,29.91192 C26.858,30.00944 27.61384,29.85856 28.26384,29.48272 C28.91376,29.10696 29.42152,28.52712 29.7084,27.83328 C29.9952,27.13944 30.04504,26.37032 29.85016,25.6452 C29.65528,24.92016 29.22664,24.27968 28.63056,23.82312 C28.03456,23.36648 27.30456,23.11936 26.55376,23.12 L10.59832,23.12 L10.02944,20.56 L26.46456,20.56 C27.04776,20.5628 27.61416,20.3652 28.06912,20.00024 C28.52408,19.63536 28.83992,19.12536 28.96376,18.55544 L28.96376,18.55544 Z M9.91376,28.24 C9.57624,28.24 9.24624,28.13992 8.9656,27.9524 C8.68496,27.76488 8.46624,27.49832 8.33704,27.18648 C8.20784,26.87464 8.17408,26.53144 8.23992,26.2004 C8.30576,25.86936 8.46832,25.56528 8.70696,25.32656 C8.94568,25.08792 9.24976,24.92536 9.5808,24.85952 C9.91184,24.79368 10.25504,24.82744 10.56688,24.95664 C10.87872,25.08584 11.14528,25.30456 11.3328,25.5852 C11.52032,25.86584 11.6204,26.19584 11.6204,26.53336 C11.61992,26.98584 11.44,27.41968 11.12008,27.73968 C10.80008,28.0596 10.36624,28.23952 9.91376,28.24 L9.91376,28.24 Z M28.2604,26.53336 C28.2604,26.87088 28.16032,27.20088 27.9728,27.48152 C27.78528,27.76216 27.51872,27.98088 27.20688,28.11008 C26.89504,28.23928 26.55184,28.27304 26.2208,28.2072 C25.88976,28.14136 25.58568,27.9788 25.34696,27.74016 C25.10832,27.50144 24.94576,27.19736 24.87992,26.86632 C24.81408,26.53528 24.84784,26.19208 24.97704,25.88024 C25.10624,25.5684 25.32496,25.30184 25.6056,25.11432 C25.88624,24.9268 26.21624,24.82672 26.55376,24.82672 C27.00624,24.8272 27.44008,25.00712 27.76008,25.32704 C28.08,25.64704 28.25992,26.08088 28.2604,26.53336 L28.2604,26.53336 Z M6.42648,4.34664 L30.37296,4.34664 L27.29792,18.18504 C27.25656,18.37504 27.1512,18.54504 26.99952,18.66672 C26.84784,18.78832 26.65896,18.85424 26.46456,18.8533687 L9.65024,18.8533687 L6.42648,4.34664 Z" id="Shape" fill="#000000"></path>
                </g>
            </g>
        </g>
    </g>
</svg>