<?xml version="1.0" encoding="UTF-8"?>
<svg width="60px" height="60px" viewBox="0 0 60 60" version="1.1" xmlns="http://www.w3.org/2000/svg" xmlns:xlink="http://www.w3.org/1999/xlink">
    <!-- Generator: sketchtool 59 (101010) - https://sketch.com -->
    <title>3677573C-0117-456B-88D4-0ACC2500CD41</title>
    <desc>Created with sketchtool.</desc>
    <g id="Page-1" stroke="none" stroke-width="1" fill="none" fill-rule="evenodd">
        <g id="03_liste_button" transform="translate(-233.000000, -381.000000)">
            <g id="demande" transform="translate(233.000000, 381.000000)">
                <circle id="Oval-Copy-2" fill="#F2F7FF" cx="30" cy="30" r="30"></circle>
                <g id="191651875816354821514533" transform="translate(15.000000, 20.000000)" fill-rule="nonzero">
                    <path d="M25.4065244,10.4268293 C25.4065854,9.48560976 25.7467073,8.57609756 26.3642683,7.86585366 C26.9818902,7.15560976 27.8353049,6.69243902 28.767378,6.56164634 C28.9195732,6.53768293 29.0580488,6.45969512 29.1575,6.34207317 C29.2568902,6.22439024 29.3106707,6.07481707 29.3090029,5.92079268 L29.3090029,1.97152439 C29.3090029,1.80067073 29.2753049,1.63152439 29.209939,1.47371951 C29.1445732,1.31591463 29.0487195,1.1725 28.9279268,1.05170732 C28.8071341,0.930914634 28.6637195,0.835097561 28.5059146,0.769731707 C28.3481098,0.704365854 28.1789024,0.670731707 28.0081098,0.670731707 L1.99188415,0.670731707 C1.64689634,0.670731707 1.31603049,0.807780488 1.07208537,1.05170732 C0.828140244,1.29567073 0.691050906,1.62652439 0.691050906,1.97152439 L0.691050906,5.92073171 C0.689359756,6.0747561 0.743134146,6.22432927 0.842579268,6.3420122 C0.942018293,6.45963415 1.0804939,6.53762195 1.23267683,6.56158537 C2.16476829,6.69231707 3.01822561,7.1554878 3.63581707,7.86573171 C4.25340854,8.57597561 4.59353049,9.48554878 4.59353049,10.4267683 C4.59353049,11.3679268 4.25340854,12.277439 3.63581707,12.9877439 C3.01822561,13.6979878 2.16476829,14.1611585 1.23267683,14.2918902 C1.0804939,14.3158537 0.942018293,14.3938415 0.842579268,14.5114634 C0.743134146,14.6291463 0.689359756,14.7787195 0.691050906,14.9327439 L0.691050906,18.8820122 C0.691050906,19.0528659 0.724713415,19.2220122 0.790073171,19.3798171 C0.855439024,19.5376829 0.95125,19.6810976 1.07204268,19.8018902 C1.19283537,19.9226829 1.3362378,20.0185366 1.49406707,20.0839024 C1.65189024,20.1492683 1.82105488,20.1829268 1.99188415,20.1829268 L28.0081098,20.1829268 C28.1789024,20.1829268 28.3480488,20.1492683 28.5059146,20.0839024 C28.6637195,20.0185366 28.8071341,19.9227439 28.9279268,19.8019512 C29.0487195,19.6811585 29.1445122,19.5377439 29.209878,19.379939 C29.2752439,19.2221341 29.3090029,19.0529268 29.3090029,18.8821341 L29.3090029,14.9329268 C29.3106098,14.7789024 29.2568293,14.6293293 29.157439,14.5116463 C29.0579878,14.3940244 28.9195122,14.3160366 28.7673171,14.2920732 C27.8352439,14.1612805 26.9818293,13.6980488 26.3642683,12.9878049 C25.7467073,12.2775 25.4065854,11.3680488 25.4065244,10.4268293 L25.4065244,10.4268293 Z" id="Path" fill="#065FBB"></path>
                    <path d="M9.79676829,0.670731707 L1.99188415,0.670731707 C1.64689024,0.670731707 1.31601829,0.80777439 1.07206707,1.05170732 C0.828109756,1.29567073 0.69099077,1.62652439 0.69099077,1.97152439 L0.69099077,5.92073171 C0.689317073,6.0747561 0.743091463,6.22432927 0.842530488,6.34195122 C0.94197561,6.45963415 1.08043902,6.53762195 1.23261585,6.56158537 C2.16471341,6.69231707 3.01816463,7.1554878 3.6357561,7.86573171 C4.25334756,8.57597561 4.59346951,9.48554878 4.59346951,10.4267683 C4.59346951,11.3679268 4.25334756,12.277439 3.6357561,12.9877439 C3.01816463,13.6979878 2.16471341,14.1611585 1.23261585,14.2918902 C1.08043902,14.3158537 0.94197561,14.3938415 0.842530488,14.5115244 C0.743091463,14.6291463 0.689317073,14.7787195 0.69099077,14.9327439 L0.69099077,18.8820122 C0.69099077,19.0528659 0.724664634,19.2220122 0.790036585,19.3798171 C0.855408537,19.5376829 0.95122561,19.6810976 1.07202439,19.8018902 C1.19281707,19.9226829 1.33622561,20.0185366 1.49405488,20.0839024 C1.65189024,20.1492683 1.82104878,20.1829268 1.99188415,20.1829268 L9.79676829,20.1829268 L9.79676829,0.670731707 Z" id="Path" fill="#0553A2"></path>
                    <path d="M28.8570122,7.20591463 C29.1644512,7.1597561 29.445,7.00445122 29.647378,6.76847561 C29.8497561,6.53256098 29.9604878,6.23158537 29.9593383,5.92073171 L29.9593383,1.97152439 C29.9587805,1.45420732 29.7529878,0.958231707 29.3871951,0.592426829 C29.0214024,0.226628049 28.5254268,0.0208719512 28.0081098,0.020304878 L1.99188415,0.020304878 C1.47456098,0.0208719512 0.978591463,0.226628049 0.612786585,0.592426829 C0.246987805,0.958231707 0.0412317073,1.45420732 0.04065554,1.97152439 L0.04065554,5.92073171 C0.0395,6.23158537 0.150231707,6.5325 0.352628049,6.76847561 C0.555018293,7.00445122 0.835560976,7.15969512 1.14298171,7.20585366 C1.91957927,7.31493902 2.63060976,7.70097561 3.14514024,8.29280488 C3.65966463,8.88463415 3.94304268,9.64243902 3.94307927,10.4266463 C3.94311585,11.2108537 3.65981098,11.9686585 3.14534146,12.5605488 C2.63086585,13.152439 1.91987195,13.5385366 1.14328659,13.6476829 C0.835804878,13.6938415 0.555195122,13.8490854 0.352743902,14.085061 C0.150292683,14.3210366 0.0395182927,14.6220122 0.04065554,14.9329268 L0.04065554,18.8820732 C0.0412317073,19.3993902 0.246987805,19.8953659 0.612786585,20.2611585 C0.978591463,20.6269512 1.47456098,20.8327439 1.99188415,20.8332927 L28.0081098,20.8332927 C28.5254268,20.8327439 29.0214024,20.6269512 29.3871951,20.2611585 C29.7529878,19.8953659 29.9587805,19.3993902 29.9593383,18.8820732 L29.9593383,14.9329268 C29.9604878,14.6220732 29.8497561,14.3211585 29.647378,14.0851829 C29.444939,13.8492073 29.1644512,13.6939024 28.8570122,13.6476829 C28.0803659,13.5386585 27.3692073,13.152622 26.8546341,12.5607927 C26.340061,11.9689024 26.0567073,11.2110366 26.0567073,10.4267683 C26.0567073,9.6425 26.340061,8.88463415 26.8546341,8.2927439 C27.3692073,7.70091463 28.0803659,7.31487805 28.8570122,7.20585366 L28.8570122,7.20591463 Z M24.7560976,10.4268293 C24.7560976,12.6870732 26.4421341,14.6255488 28.6585366,14.9329268 L28.6585366,18.8820732 C28.6582927,19.0545122 28.5896951,19.2198171 28.4678049,19.3417683 C28.3458537,19.4636585 28.1805488,19.5322561 28.0081098,19.532561 L10.4471341,19.532561 L10.4471341,18.0148171 C10.4454878,17.8434146 10.3762195,17.6795732 10.2544512,17.5589634 C10.132622,17.4383537 9.96817073,17.3706707 9.79670732,17.3706707 C9.62530488,17.3706707 9.46085366,17.4383537 9.33902439,17.5589634 C9.2172561,17.6795732 9.1479878,17.8434146 9.14634146,18.0148171 L9.14634146,19.532561 L1.99188415,19.532561 C1.81945122,19.5323171 1.65414024,19.4637195 1.53221341,19.3418293 C1.41028049,19.219878 1.34168293,19.0545732 1.34145732,18.8821341 L1.32206707,14.9365244 C2.40829268,14.7809146 3.4022561,14.2396341 4.12232927,13.4115854 C4.84240244,12.5835976 5.2405061,11.5241463 5.24389634,10.4268293 C5.24389634,8.16646341 3.55785976,6.2277439 1.34145732,5.92073171 L1.34145732,1.97152439 C1.34165244,1.79908537 1.4102378,1.63378049 1.53217683,1.51182927 C1.65411585,1.38987805 1.81943902,1.32128049 1.99188415,1.32109756 L9.14634146,1.32109756 L9.14634146,2.83865854 C9.1454878,2.92457317 9.16170732,3.00987805 9.19402439,3.0895122 C9.22634146,3.16914634 9.27408537,3.24158537 9.33457317,3.30262195 C9.39506098,3.36371951 9.46707317,3.41219512 9.54634146,3.4452439 C9.62567073,3.47835366 9.71079268,3.49536585 9.79670732,3.49536585 C9.88268293,3.49536585 9.9677439,3.47835366 10.0470732,3.4452439 C10.1264024,3.41219512 10.1984146,3.36371951 10.2589024,3.30262195 C10.3193293,3.24158537 10.3671341,3.16914634 10.3994512,3.0895122 C10.4317683,3.00987805 10.4479878,2.92457317 10.4471341,2.83865854 L10.4471341,1.32109756 L28.0081098,1.32109756 C28.1805488,1.32134146 28.3458537,1.38993902 28.4678049,1.51182927 C28.5896951,1.63378049 28.6582927,1.79908537 28.6585366,1.97152439 L28.6779268,5.9175 C27.5916463,6.07292683 26.597622,6.61408537 25.877561,7.44207317 C25.157439,8.27006098 24.7593902,9.3295122 24.7560976,10.4268293 L24.7560976,10.4268293 Z" id="Shape" fill="#000000"></path>
                    <path d="M9.79676829,4.84420732 C9.62426829,4.84420732 9.45884146,4.9127439 9.33682927,5.03469512 C9.21487805,5.15670732 9.14634146,5.32213415 9.14634146,5.49463415 L9.14634146,7.01219512 C9.1454878,7.09810976 9.16170732,7.18341463 9.19402439,7.26304878 C9.22634146,7.34268293 9.27414634,7.41512195 9.33457317,7.47615854 C9.39506098,7.5372561 9.46707317,7.58573171 9.54640244,7.61878049 C9.62567073,7.65189024 9.71079268,7.66890244 9.79676829,7.66890244 C9.88268293,7.66890244 9.96780488,7.65189024 10.0470732,7.61878049 C10.1264024,7.58573171 10.1984146,7.5372561 10.2589024,7.47615854 C10.3193293,7.41512195 10.3671341,7.34268293 10.3994512,7.26304878 C10.4317683,7.18341463 10.4479878,7.09810976 10.4471341,7.01219512 L10.4471341,5.49463415 C10.4471341,5.32213415 10.3785976,5.15670732 10.2566463,5.0347561 C10.1346951,4.9127439 9.96926829,4.84420732 9.79676829,4.84420732 L9.79676829,4.84420732 Z" id="Path" fill="#000000"></path>
                    <path d="M9.79676829,9.01756098 C9.62426829,9.01756098 9.45884146,9.08609756 9.33682927,9.20804878 C9.21487805,9.33006098 9.14634146,9.4954878 9.14634146,9.6679878 L9.14634146,11.1855488 C9.1454878,11.2714634 9.16170732,11.3567683 9.19402439,11.4364024 C9.22634146,11.5160366 9.27414634,11.5884756 9.33457317,11.6495122 C9.39506098,11.7106098 9.46707317,11.7590854 9.54640244,11.7921341 C9.62567073,11.8252439 9.71079268,11.8422561 9.79676829,11.8422561 C9.88268293,11.8422561 9.96780488,11.8252439 10.0470732,11.7921341 C10.1264024,11.7590854 10.1984146,11.7106098 10.2589024,11.6495122 C10.3193293,11.5884756 10.3671341,11.5160366 10.3994512,11.4364024 C10.4317683,11.3567683 10.4479878,11.2714634 10.4471341,11.1855488 L10.4471341,9.6679878 C10.4471341,9.4954878 10.3785976,9.33006098 10.2566463,9.20810976 C10.1346951,9.08609756 9.96926829,9.01756098 9.79676829,9.01756098 L9.79676829,9.01756098 Z" id="Path" fill="#000000"></path>
                    <path d="M9.79676829,13.1910366 C9.62426829,13.1910366 9.45884146,13.2595732 9.33682927,13.3815244 C9.21487805,13.5035366 9.14634146,13.6689634 9.14634146,13.8414634 L9.14634146,15.3592073 C9.1454878,15.445122 9.16170732,15.5304268 9.19402439,15.610061 C9.22634146,15.6896951 9.27414634,15.7621341 9.33457317,15.8231707 C9.39506098,15.8842683 9.46707317,15.9327439 9.54640244,15.9657927 C9.62567073,15.9989024 9.71079268,16.0159146 9.79676829,16.0159146 C9.88268293,16.0159146 9.96780488,15.9989024 10.0470732,15.9657927 C10.1264024,15.9327439 10.1984146,15.8842683 10.2589024,15.8231707 C10.3193293,15.7621341 10.3671341,15.6896951 10.3994512,15.610061 C10.4317683,15.5304268 10.4479878,15.445122 10.4471341,15.3592073 L10.4471341,13.8414634 C10.4471341,13.6689634 10.3785976,13.5035366 10.2566463,13.3815854 C10.1346951,13.2595732 9.96926829,13.1910366 9.79676829,13.1910366 L9.79676829,13.1910366 Z" id="Path" fill="#000000"></path>
                </g>
            </g>
        </g>
    </g>
</svg>