<?xml version="1.0" encoding="UTF-8"?>
<svg width="60px" height="60px" viewBox="0 0 60 60" version="1.1" xmlns="http://www.w3.org/2000/svg" xmlns:xlink="http://www.w3.org/1999/xlink">
    <title>DB6ABB58-C197-4CBD-AEA0-DC3FC70B4B6A</title>
    <g id="Page-1" stroke="none" stroke-width="1" fill="none" fill-rule="evenodd">
        <g id="03_dashboard" transform="translate(-68.000000, -641.000000)">
            <g id="mise_jour" transform="translate(68.000000, 641.000000)">
                <circle id="Oval" fill="#F2F7FF" cx="30" cy="30" r="30"></circle>
                <g id="update" transform="translate(15.000000, 15.000000)" fill-rule="nonzero">
                    <path d="M5.52376275,29.875762 L6.8143545,27.6401734 C6.00727105,27.1086851 5.24469083,26.4965348 4.5358852,25.8113715 C-0.395389824,20.9714206 -1.4231348,13.4146907 2.03072793,7.43040585 C4.24823716,3.59038543 8.00829096,0.926917476 12.3473494,0.122615473 L13.0107247,0 L15.5376699,5.12783072 L14.2498597,5.24789652 C11.0813271,5.54180283 8.24309149,7.35646568 6.65766628,10.1017547 C4.57853406,13.7025705 4.9969102,18.2235821 7.69862311,21.3503929 C8.22385313,21.9773776 8.8237187,22.529495 9.49242508,23.0018775 L10.7489441,20.8244675 L14.9248244,29.268711 L5.52376275,29.875762 Z" id="Path" fill="#25D9F8"></path>
                    <path d="M17.3657765,30 L14.8372087,24.8686925 L16.1275687,24.750481 C19.2919291,24.4619058 22.1301647,22.6470111 23.7179078,19.8966229 C26.2675683,15.4792203 24.9744268,9.87993416 20.8840761,6.9965 L19.62663,9.17391004 L15.4528358,0.731984361 L19.5675242,0.458243501 L19.5839811,0.466819676 L24.8536656,0.119834026 L23.5623785,2.35727693 C26.6683285,4.39630996 28.8893145,7.46424683 29.8588808,11.0808243 C30.904937,14.9850497 30.367654,19.0652018 28.3448461,22.5677399 C26.137072,26.3913034 22.3779453,29.0547714 18.0310061,29.8748349 L17.3657765,30 Z" id="Path" fill="#00C0F1"></path>
                    <path d="M21.4208955,14.9991888 C21.4208955,14.8387919 21.4208955,14.6607793 21.4030479,14.5003825 L23.4689682,13.3073732 L20.7976195,8.67695804 L18.7140833,9.88804673 C18.4292167,9.69218647 18.1619659,9.53178965 17.8592517,9.38924044 L17.8592517,6.98514244 L12.5165542,6.98514244 L12.5165542,9.38924044 C12.21384,9.53178965 11.946821,9.6919547 11.6619543,9.88804673 L9.57818641,8.67695804 L6.90683766,13.3073732 L8.97275795,14.5003825 C8.95491029,14.6607793 8.95491029,14.8387919 8.95491029,14.9991888 C8.95491029,15.1593538 8.95491029,15.3373664 8.97275795,15.4977633 L6.90683766,16.6910043 L9.57818641,21.3211877 L11.6619543,20.110099 C11.946821,20.3059593 12.21384,20.4663561 12.5165542,20.6086735 L12.5165542,23.0130033 L17.8592517,23.0130033 L17.8592517,20.6086735 C18.1619659,20.4663561 18.4292167,20.3059593 18.7140833,20.110099 L20.7976195,21.3211877 L23.4689682,16.6910043 L21.4030479,15.4977633 C21.4208955,15.3373664 21.4208955,15.1593538 21.4208955,14.9991888 L21.4208955,14.9991888 Z M15.1879029,17.6705375 C13.7097952,17.6705375 12.5165542,16.4770647 12.5165542,14.9991888 C12.5165542,13.5208493 13.7097952,12.32784 15.1879029,12.32784 C16.6660106,12.32784 17.8592517,13.5208493 17.8592517,14.9991888 C17.8592517,16.4770647 16.6660106,17.6705375 15.1879029,17.6705375 Z" id="Shape" fill="#1C78BF"></path>
                    <path d="M21.4030479,15.4977633 L23.4689682,16.6910043 L20.7976195,21.3211877 L18.7140833,20.110099 C18.4292167,20.3059593 18.1619659,20.4663561 17.8592517,20.6086735 L17.8592517,23.0130033 L15.1879029,23.0130033 L15.1879029,17.6703058 C16.6660106,17.6703058 17.8592517,16.4770647 17.8592517,14.998957 C17.8592517,13.5208493 16.6662424,12.32784 15.1879029,12.32784 L15.1879029,6.98514244 L17.8592517,6.98514244 L17.8592517,9.38924044 C18.1619659,9.53178965 18.4292167,9.6919547 18.7140833,9.88781496 L20.7976195,8.67695804 L23.4689682,13.3071414 L21.4030479,14.5003825 C21.4208955,14.6605475 21.4208955,14.8385601 21.4208955,14.998957 C21.4208955,15.1593538 21.4208955,15.3373664 21.4030479,15.4977633 L21.4030479,15.4977633 Z" id="Path" fill="#145383"></path>
                </g>
            </g>
        </g>
    </g>
</svg>