<?xml version="1.0" encoding="UTF-8"?>
<svg width="60px" height="60px" viewBox="0 0 60 60" version="1.1" xmlns="http://www.w3.org/2000/svg" xmlns:xlink="http://www.w3.org/1999/xlink">
    <!-- Generator: Sketch 59 (86127) - https://sketch.com -->
    <title>Slice 1</title>
    <desc>Created with Sketch.</desc>
    <g id="Page-1" stroke="none" stroke-width="1" fill="none" fill-rule="evenodd">
        <g id="Arrivage" fill-rule="nonzero">
            <circle id="Oval" fill="#F2F7FF" cx="30" cy="30" r="30"></circle>
            <g id="barcode-scanner-svgrepo-com" transform="translate(15.000000, 16.000000)">
                <path d="M24.4297,13.5048 L22.4347,24.7908 C22.3877,25.0568 22.1577,25.2508 21.8867,25.2508 L18.2837,25.2508 C18.0587,25.2508 17.9197,25.1258 17.8577,25.0518 C17.7957,24.9778 17.6967,24.8198 17.7367,24.5978 L18.4877,20.3478 L20.0797,20.3478 C20.6537,20.3478 21.1197,19.8818 21.1197,19.3078 C21.1197,18.7348 20.6537,18.2688 20.0797,18.2688 L18.8547,18.2688 L19.6977,13.5048 L24.4297,13.5048 Z" id="Path" fill="#0055AD"></path>
                <path d="M27.6467,4.5508 L27.6467,8.9748 C27.6467,10.3268 26.5467,11.4258 25.1947,11.4258 L20.2337,11.4258 L16.5037,2.0988 L25.1947,2.0988 C26.5467,2.0988 27.6467,3.1988 27.6467,4.5508 Z" id="Path" fill="#0055AD"></path>
                <polygon id="Path" fill="#FAC100" points="14.2647 2.0988 17.9957 11.4258 15.7037 11.4258 11.9727 2.0988"></polygon>
                <path d="M29.7247,4.5508 L29.7247,8.9748 C29.7247,10.9898 28.4017,12.7008 26.5787,13.2878 L24.4817,25.1528 C24.2587,26.4138 23.1677,27.3288 21.8867,27.3288 L18.2837,27.3288 C17.5027,27.3288 16.7677,26.9858 16.2657,26.3868 C15.7637,25.7888 15.5537,25.0048 15.6897,24.2358 L17.5867,13.5048 L14.9997,13.5048 C14.5747,13.5048 14.1927,13.2458 14.0347,12.8508 L9.4727,1.4458 C9.3447,1.1258 9.3837,0.7628 9.5767,0.4778 C9.7707,0.1918 10.0927,0.0208 10.4377,0.0208 L25.1947,0.0208 C27.6927,0.0208 29.7247,2.0528 29.7247,4.5508 Z M27.6467,8.9748 L27.6467,4.5508 C27.6467,3.1988 26.5467,2.0988 25.1947,2.0988 L16.5037,2.0988 L20.2337,11.4258 L25.1947,11.4258 C26.5467,11.4258 27.6467,10.3268 27.6467,8.9748 Z M22.4347,24.7908 L24.4297,13.5048 L19.6977,13.5048 L18.8547,18.2688 L20.0797,18.2688 C20.6537,18.2688 21.1197,18.7348 21.1197,19.3078 C21.1197,19.8818 20.6537,20.3478 20.0797,20.3478 L18.4877,20.3478 L17.7367,24.5978 C17.6967,24.8198 17.7957,24.9778 17.8577,25.0518 C17.9197,25.1258 18.0587,25.2508 18.2837,25.2508 L21.8867,25.2508 C22.1577,25.2508 22.3877,25.0568 22.4347,24.7908 Z M17.9957,11.4258 L14.2647,2.0988 L11.9727,2.0988 L15.7037,11.4258 L17.9957,11.4258 Z" id="Shape" fill="#000000"></path>
                <path d="M9.0197,10.9488 C9.5487,11.1728 9.7957,11.7828 9.5727,12.3108 C9.4047,12.7078 9.0197,12.9458 8.6147,12.9458 C8.4797,12.9458 8.3427,12.9198 8.2107,12.8638 C6.8327,12.2808 5.7637,11.1968 5.2017,9.8098 C4.6387,8.4238 4.6497,6.9018 5.2327,5.5238 C5.4557,4.9948 6.0657,4.7478 6.5947,4.9708 C7.1227,5.1938 7.3707,5.8038 7.1467,6.3328 C6.7807,7.1998 6.7737,8.1568 7.1277,9.0288 C7.4807,9.9008 8.1537,10.5828 9.0197,10.9488 Z" id="Path" fill="#000000"></path>
                <path d="M7.1647,15.3388 C7.6937,15.5618 7.9407,16.1718 7.7177,16.7008 C7.5497,17.0968 7.1647,17.3348 6.7597,17.3348 C6.6247,17.3348 6.4877,17.3088 6.3557,17.2528 C1.0907,15.0268 -1.3823,8.9328 0.8427,3.6678 C1.0667,3.1398 1.6757,2.8918 2.2047,3.1158 C2.7337,3.3388 2.9807,3.9488 2.7577,4.4768 C0.9777,8.6868 2.9547,13.5588 7.1647,15.3388 Z" id="Path" fill="#000000"></path>
            </g>
        </g>
    </g>
</svg>