<?xml version="1.0" encoding="UTF-8"?>
<svg width="60px" height="60px" viewBox="0 0 60 60" version="1.1" xmlns="http://www.w3.org/2000/svg" xmlns:xlink="http://www.w3.org/1999/xlink">
    <!-- Generator: sketchtool 59 (101010) - https://sketch.com -->
    <title>14853DB2-9996-4E27-94FF-176A4AA3EF9C</title>
    <desc>Created with sketchtool.</desc>
    <g id="Page-1" stroke="none" stroke-width="1" fill="none" fill-rule="evenodd">
        <g id="03_liste_button" transform="translate(-68.000000, -116.000000)">
            <g id="inventaire" transform="translate(68.000000, 116.000000)">
                <circle id="Oval" fill="#F2F7FF" cx="30" cy="30" r="30"></circle>
                <g id="20319110616354821534533" transform="translate(18.000000, 15.000000)" fill-rule="nonzero">
                    <path d="M21.7872766,2.74468085 L2.72342553,2.74468085 C1.59535532,2.74468085 0.68087234,3.65916383 0.68087234,4.78723404 L0.68087234,27.2553191 C0.68087234,28.383383 1.59535532,29.2978723 2.72342553,29.2978723 L21.7872766,29.2978723 C22.9153404,29.2978723 23.8298298,28.383383 23.8298298,27.2553191 L23.8298298,4.78723404 C23.8298298,3.65916383 22.9153404,2.74468085 21.7872766,2.74468085 Z" id="Path" fill="#EAEFF0"></path>
                    <path d="M6.80853191,9.55321277 L5.44685106,9.55321277 C5.07082979,9.55321277 4.76597872,9.85806383 4.76597872,10.2340851 L4.76597872,11.595766 C4.76597872,11.9717872 5.07082979,12.2766383 5.44685106,12.2766383 L6.80853191,12.2766383 C7.18455319,12.2766383 7.48940426,11.9717872 7.48940426,11.595766 L7.48940426,10.2340851 C7.48940426,9.85806383 7.18455319,9.55321277 6.80853191,9.55321277 Z" id="Path" fill="#8FA5A5"></path>
                    <path d="M6.80853191,15.6808723 L5.44685106,15.6808723 C5.07082979,15.6808723 4.76597872,15.9857234 4.76597872,16.3617447 L4.76597872,17.7234255 C4.76597872,18.0994468 5.07082979,18.4042979 5.44685106,18.4042979 L6.80853191,18.4042979 C7.18455319,18.4042979 7.48940426,18.0994468 7.48940426,17.7234255 L7.48940426,16.3617447 C7.48940426,15.9857234 7.18455319,15.6808723 6.80853191,15.6808723 Z" id="Path" fill="#8FA5A5"></path>
                    <path d="M6.80853191,21.8085319 L5.44685106,21.8085319 C5.07082979,21.8085319 4.76597872,22.113383 4.76597872,22.4894043 L4.76597872,23.8510851 C4.76597872,24.2271064 5.07082979,24.5319574 5.44685106,24.5319574 L6.80853191,24.5319574 C7.18455319,24.5319574 7.48940426,24.2271064 7.48940426,23.8510851 L7.48940426,22.4894043 C7.48940426,22.113383 7.18455319,21.8085319 6.80853191,21.8085319 Z" id="Path" fill="#8FA5A5"></path>
                    <path d="M17.7021064,0.70212766 L6.80853191,0.70212766 C6.43251064,0.70212766 6.12765957,1.00696596 6.12765957,1.383 L6.12765957,4.1063617 C6.12765957,4.48239574 6.43251064,4.78723404 6.80853191,4.78723404 L17.7021064,4.78723404 C18.0781277,4.78723404 18.3829787,4.48239574 18.3829787,4.1063617 L18.3829787,1.383 C18.3829787,1.00696596 18.0781277,0.70212766 17.7021064,0.70212766 Z" id="Path" fill="#065FBB"></path>
                    <path d="M21.7872128,2.06380851 L19.0638511,2.06380851 L19.0638511,1.383 C19.0634681,1.02197872 18.9198511,0.675855319 18.6645957,0.420574468 C18.4093404,0.165293617 18.0631915,0.0217085106 17.7021702,0.0213191489 L6.80853191,0.0213191489 C6.44751064,0.0217085106 6.1013617,0.165293617 5.84610638,0.420574468 C5.59085106,0.675855319 5.44723404,1.02197872 5.44685106,1.383 L5.44685106,2.06380851 L2.72342553,2.06380851 C2.00138298,2.0646383 1.30914894,2.35183404 0.798587234,2.86239574 C0.288025532,3.37295745 0.000829787234,4.06519149 0,4.78723404 L0,27.2553191 C0.000829787234,27.9773617 0.288025532,28.6695957 0.798587234,29.1801702 C1.30914894,29.6907447 2.00138298,29.9779149 2.72342553,29.9787447 L21.7872128,29.9787447 C22.5092553,29.9779149 23.2014894,29.6907447 23.7120638,29.1801702 C24.2226383,28.6695957 24.5098085,27.9773617 24.5106383,27.2553191 L24.5106383,4.78723404 C24.5098085,4.06519149 24.2226383,3.37295745 23.7120638,2.86239574 C23.2014894,2.35183404 22.5092553,2.0646383 21.7872128,2.06380851 L21.7872128,2.06380851 Z M6.80853191,1.383 L17.7021064,1.383 L17.7031277,4.10642553 L6.80853191,4.10642553 L6.80853191,1.383 Z M23.1489574,27.2553191 C23.1485745,27.6163404 23.0050213,27.9624894 22.749766,28.2178085 C22.4944468,28.4730638 22.1482979,28.616617 21.7872766,28.617 L2.72342553,28.617 C2.36240426,28.6166809 2.0162234,28.4730638 1.7609234,28.2178085 C1.5056234,27.9624894 1.3620383,27.6163404 1.36168085,27.2553191 L1.36168085,4.78723404 C1.36207021,4.42621277 1.50565532,4.08008936 1.76093617,3.82480851 C2.01621702,3.56952766 2.36234043,3.42594255 2.7233617,3.42555319 L5.44678723,3.42555319 L5.44678723,4.1063617 C5.44717021,4.46738298 5.59078723,4.81350638 5.84604255,5.06878723 C6.10129787,5.32404255 6.44744681,5.46765957 6.80846809,5.46804255 L17.7021064,5.46804255 C18.0631277,5.46765957 18.4092766,5.32404255 18.6645319,5.06878723 C18.9197872,4.81350638 19.0634043,4.46738298 19.0637872,4.1063617 L19.0637872,3.42555319 L21.7872128,3.42555319 C22.148234,3.4259234 22.494383,3.56950213 22.7497021,3.82478298 C23.0049574,4.08007021 23.1485745,4.4262 23.1489574,4.78723404 L23.1489574,27.2553191 Z" id="Shape" fill="#000000"></path>
                    <path d="M19.7446596,10.2340213 L10.212766,10.2340213 C10.0333404,10.2357447 9.86189362,10.3082553 9.73557447,10.4357234 C9.60931915,10.5632553 9.53853191,10.7354043 9.53853191,10.9148936 C9.53853191,11.0943191 9.60931915,11.2664681 9.73557447,11.394 C9.86189362,11.5214681 10.0333404,11.5939787 10.212766,11.5957021 L19.7446596,11.5957021 C19.8346596,11.5965957 19.9238936,11.579617 20.0072553,11.5457872 C20.090617,11.5119574 20.1664468,11.4619149 20.2304043,11.3986596 C20.2942979,11.3353404 20.3450426,11.2599574 20.3797021,11.1769149 C20.4142979,11.0939362 20.4321702,11.0048298 20.4321702,10.9148936 C20.4321702,10.8248936 20.4142979,10.7357872 20.3797021,10.6528085 C20.3450426,10.569766 20.2942979,10.494383 20.2304043,10.4310638 C20.1664468,10.3678085 20.090617,10.317766 20.0072553,10.2839362 C19.9238936,10.2501064 19.8346596,10.2331277 19.7446596,10.2340213 L19.7446596,10.2340213 Z" id="Path" fill="#000000"></path>
                    <path d="M6.80853191,8.87234043 L5.44678723,8.87234043 C5.08576596,8.8727234 4.73961702,9.01634043 4.4843617,9.27159574 C4.22910638,9.52685106 4.08548936,9.873 4.08510638,10.2340213 L4.08510638,11.5957021 C4.08548936,11.9567234 4.22904255,12.3028723 4.4843617,12.5581915 C4.73961702,12.8134468 5.08576596,12.9570638 5.44678723,12.9574468 L6.80846809,12.9574468 C7.16948936,12.9570638 7.5156383,12.8135106 7.77095745,12.5581915 C8.02621277,12.3029362 8.16982979,11.9567872 8.17021277,11.595766 L8.17021277,10.2340213 C8.16982979,9.873 8.02621277,9.52685106 7.77095745,9.27159574 C7.51570213,9.01634043 7.16955319,8.8727234 6.80853191,8.87234043 L6.80853191,8.87234043 Z M5.44685106,11.595766 L5.44685106,10.2340213 L6.80853191,10.2340213 L6.80955319,11.5957021 L5.44685106,11.595766 Z" id="Shape" fill="#000000"></path>
                    <path d="M19.7446596,16.3616809 L10.212766,16.3616809 C10.0333404,16.3634043 9.86189362,16.4359149 9.73557447,16.563383 C9.60931915,16.6909149 9.53853191,16.8630638 9.53853191,17.0425532 C9.53853191,17.2219787 9.60931915,17.3941277 9.73557447,17.5216596 C9.86189362,17.6491277 10.0333404,17.7216383 10.212766,17.7233617 L19.7446596,17.7233617 C19.8346596,17.7242553 19.9238936,17.7072766 20.0072553,17.6734468 C20.090617,17.639617 20.1664468,17.5895745 20.2304043,17.5263191 C20.2942979,17.463 20.3450426,17.387617 20.3797021,17.3045745 C20.4142979,17.2215957 20.4321702,17.1324894 20.4321702,17.0425532 C20.4321702,16.9525532 20.4142979,16.8634468 20.3797021,16.7804681 C20.3450426,16.6974255 20.2942979,16.6220426 20.2304043,16.5587234 C20.1664468,16.4954681 20.090617,16.4454255 20.0072553,16.4115957 C19.9238936,16.377766 19.8346596,16.3607872 19.7446596,16.3616809 L19.7446596,16.3616809 Z" id="Path" fill="#000000"></path>
                    <path d="M6.80853191,15 L5.44678723,15 C5.08576596,15.000383 4.73961702,15.1439362 4.48429787,15.3991915 C4.22904255,15.6545106 4.08548936,16.0006596 4.08510638,16.3616809 L4.08510638,17.7233617 C4.08542553,18.084383 4.22904255,18.4305319 4.48429787,18.6858511 C4.73961702,18.9411702 5.08576596,19.0847234 5.44678723,19.0851064 L6.80846809,19.0851064 C7.16948936,19.0847872 7.5156383,18.9411702 7.77095745,18.6859149 C8.0262766,18.4305957 8.16982979,18.0844468 8.17021277,17.7234255 L8.17021277,16.3616809 C8.16982979,16.0006596 8.0262766,15.6545106 7.77102128,15.3991915 C7.51570213,15.1439362 7.16955319,15.000383 6.80853191,15 L6.80853191,15 Z M5.44685106,17.7234255 L5.44685106,16.3616809 L6.80853191,16.3616809 L6.80955319,17.7233617 L5.44685106,17.7234255 Z" id="Shape" fill="#000000"></path>
                    <path d="M19.7446596,22.4893404 L10.212766,22.4893404 C10.0333404,22.4910638 9.86189362,22.5635745 9.73557447,22.6910426 C9.60931915,22.8185745 9.53853191,22.9907234 9.53853191,23.1702128 C9.53853191,23.3496383 9.60931915,23.5217872 9.73557447,23.6493191 C9.86189362,23.7767872 10.0333404,23.8492979 10.212766,23.8510213 L19.7446596,23.8510213 C19.8346596,23.8519149 19.9238936,23.8349362 20.0072553,23.8011064 C20.090617,23.7672766 20.1664468,23.717234 20.2304043,23.6539787 C20.2942979,23.5906596 20.3450426,23.5152766 20.3797021,23.432234 C20.4142979,23.3492553 20.4321702,23.2601489 20.4321702,23.1702128 C20.4321702,23.0802128 20.4142979,22.9911064 20.3797021,22.9081277 C20.3450426,22.8250851 20.2942979,22.7497021 20.2304043,22.686383 C20.1664468,22.6231277 20.090617,22.5730851 20.0072553,22.5392553 C19.9238936,22.5054255 19.8346596,22.4884468 19.7446596,22.4893404 L19.7446596,22.4893404 Z" id="Path" fill="#000000"></path>
                    <path d="M6.80853191,21.1276596 L5.44678723,21.1276596 C5.08576596,21.1280426 4.73961702,21.2715957 4.48429787,21.5268511 C4.22904255,21.7821702 4.08548936,22.1283191 4.08510638,22.4893404 L4.08510638,23.8510213 C4.08542553,24.2120426 4.22904255,24.5581915 4.48429787,24.8135106 C4.73961702,25.0688298 5.08576596,25.212383 5.44678723,25.212766 L6.80846809,25.212766 C7.16948936,25.2124468 7.5156383,25.0688298 7.77095745,24.8135745 C8.0262766,24.5582553 8.16982979,24.2121064 8.17021277,23.8510851 L8.17021277,22.4893404 C8.16982979,22.1283191 8.0262766,21.7821702 7.77102128,21.5268511 C7.51570213,21.2715957 7.16955319,21.1280426 6.80853191,21.1276596 L6.80853191,21.1276596 Z M5.44685106,23.8510851 L5.44685106,22.4893404 L6.80853191,22.4893404 L6.80955319,23.8510213 L5.44685106,23.8510851 Z" id="Shape" fill="#000000"></path>
                </g>
            </g>
        </g>
    </g>
</svg>