<?xml version="1.0" encoding="UTF-8"?>
<svg width="60px" height="60px" viewBox="0 0 60 60" version="1.1" xmlns="http://www.w3.org/2000/svg" xmlns:xlink="http://www.w3.org/1999/xlink">
    <!-- Generator: sketchtool 59 (101010) - https://sketch.com -->
    <title>141B2CFF-44A5-43A5-8777-409158BF1326</title>
    <desc>Created with sketchtool.</desc>
    <g id="Page-1" stroke="none" stroke-width="1" fill="none" fill-rule="evenodd">
        <g id="03_liste_button" transform="translate(-233.000000, -116.000000)">
            <g id="inventaire_hors_ligne" transform="translate(233.000000, 116.000000)">
                <circle id="Oval" fill="#F2F7FF" cx="30" cy="30" r="30"></circle>
                <g id="inventaire" transform="translate(15.000000, 15.000000)" fill-rule="nonzero">
                    <g id="Group" transform="translate(0.410156, 0.410156)">
                        <path d="M20.739082,0.029296875 L8.44060547,0.029296875 C7.8159375,0.029296875 7.30957031,0.535664062 7.30957031,1.16033203 L7.30957031,14.5898438 L14.5898438,15.7324219 L21.8701172,14.5898438 L21.8701172,1.16033203 C21.8701172,0.535664062 21.36375,0.029296875 20.739082,0.029296875 Z" id="Path" fill="#FFD187"></path>
                        <path d="M9.06738281,14.5898438 L9.06738281,1.16033203 C9.06738281,0.535664063 9.57375,0.029296875 10.198418,0.029296875 L8.44060547,0.029296875 C7.8159375,0.029296875 7.30957031,0.535664062 7.30957031,1.16033203 L7.30957031,14.5898438 L14.5898438,15.7324219 L15.46875,15.5944922 L9.06738281,14.5898438 Z" id="Path" fill="#E9A45D"></path>
                        <path d="M14.5898438,14.5898438 L1.16033203,14.5898438 C0.535664062,14.5898438 0.029296875,15.0962109 0.029296875,15.7208789 L0.029296875,29.1503906 L14.5898438,29.1503906 L16.40625,21.8701172 L14.5898438,14.5898438 Z" id="Path" fill="#809CE4"></path>
                        <path d="M2.91814453,14.5898438 L1.16033203,14.5898438 C0.535664062,14.5898438 0.029296875,15.0962109 0.029296875,15.7208789 L0.029296875,29.1503906 L1.78710938,29.1503906 L1.78710938,15.7208789 C1.78710938,15.0962109 2.29347656,14.5898438 2.91814453,14.5898438 Z" id="Path" fill="#6382D4"></path>
                        <path d="M12.5923828,22.8909961 L10.603125,20.4469336 C10.4903906,20.308418 10.2788672,20.308418 10.1660742,20.4469336 L8.17681641,22.8909961 C8.02699219,23.0750977 8.15800781,23.3506055 8.3953125,23.3506055 L9.30591797,23.3506055 L9.30591797,26.6155664 C9.30591797,26.8058203 9.46013672,26.9600977 9.65044922,26.9600977 L11.11875,26.9600977 C11.3090039,26.9600977 11.4632812,26.8058789 11.4632812,26.6155664 L11.4632812,23.3506055 L12.3738867,23.3506055 C12.61125,23.3505469 12.742207,23.0750391 12.5923828,22.8909961 Z" id="Path" fill="#6382D4"></path>
                        <path d="M28.0193555,14.5898438 L14.5898438,14.5898438 L14.5898438,29.1503906 L29.1503906,29.1503906 L29.1503906,15.7208789 C29.1503906,15.0962109 28.6440234,14.5898438 28.0193555,14.5898438 Z" id="Path" fill="#F7E477"></path>
                        <rect id="Rectangle" fill="#F2BE63" x="14.5898438" y="14.5898438" width="1.7578125" height="14.5605469"></rect>
                        <path d="M27.1529297,22.8909961 L25.1636719,20.4469336 C25.0509375,20.308418 24.8394141,20.308418 24.7266211,20.4469336 L22.7373633,22.8909961 C22.5875391,23.0750977 22.7185547,23.3506055 22.9558594,23.3506055 L23.8664648,23.3506055 L23.8664648,26.6155664 C23.8664648,26.8058203 24.0206836,26.9600977 24.2109961,26.9600977 L25.6792969,26.9600977 C25.8695508,26.9600977 26.0238281,26.8058789 26.0238281,26.6155664 L26.0238281,23.3506055 L26.9344336,23.3506055 C27.1717969,23.3505469 27.3027539,23.0750391 27.1529297,22.8909961 Z" id="Path" fill="#F2BE63"></path>
                        <path d="M19.8726563,8.33044922 L17.8833984,5.88638672 C17.7706641,5.74787109 17.5591406,5.74787109 17.4463477,5.88638672 L15.4570898,8.33044922 C15.3072656,8.51455078 15.4382813,8.79005859 15.6755859,8.79005859 L16.5861914,8.79005859 L16.5861914,12.0550195 C16.5861914,12.2452734 16.7404102,12.3995508 16.9307227,12.3995508 L18.3990234,12.3995508 C18.5892773,12.3995508 18.7435547,12.245332 18.7435547,12.0550195 L18.7435547,8.79005859 L19.6541602,8.79005859 C19.8915234,8.79 20.0224805,8.51449219 19.8726563,8.33044922 Z" id="Path" fill="#E9A45D"></path>
                    </g>
                    <g id="Group" fill="#000000">
                        <path d="M10.2354492,20.5796484 L8.24619141,23.0237109 C8.06876953,23.2417383 8.03355469,23.5348242 8.15419922,23.7886523 C8.27484375,24.0424805 8.52445313,24.2001563 8.80552734,24.2001563 L9.27667969,24.2001563 L9.27667969,27.0256641 C9.27667969,27.4579687 9.62835938,27.8096484 10.0606641,27.8096484 L11.5289648,27.8096484 C11.9612695,27.8096484 12.3129492,27.4579687 12.3129492,27.0256641 L12.3129492,24.2001563 L12.7841016,24.2001563 C13.0651758,24.2001563 13.3147266,24.0424805 13.4354297,23.7886523 C13.5561328,23.5347656 13.5208594,23.2417383 13.3434375,23.0237109 L11.3541211,20.5795898 C11.216543,20.4106055 11.0126953,20.3136914 10.7947852,20.3136914 C10.576875,20.3136914 10.3730273,20.4106055 10.2354492,20.5796484 Z M12.4523437,23.32125 L11.8734961,23.32125 C11.6308008,23.32125 11.434043,23.5180078 11.434043,23.7607031 L11.434043,26.9307422 L10.1555859,26.9307422 L10.1555859,23.7607031 C10.1555859,23.5180078 9.95882812,23.32125 9.71613281,23.32125 L9.13728516,23.32125 L10.7948437,21.284707 L12.4523437,23.32125 Z" id="Shape"></path>
                        <path d="M22.7147461,23.7886523 C22.8354492,24.0424805 23.085,24.2001563 23.3660742,24.2001563 L23.8372266,24.2001563 L23.8372266,27.0256641 C23.8372266,27.4579687 24.1889062,27.8096484 24.6212109,27.8096484 L26.0895117,27.8096484 C26.5218164,27.8096484 26.8734961,27.4579687 26.8734961,27.0256641 L26.8734961,24.2001563 L27.3446484,24.2001563 C27.6257227,24.2001563 27.8752734,24.0424805 27.9959766,23.7886523 C28.1166797,23.5347656 28.0814062,23.2417383 27.9039844,23.0237109 L25.914668,20.5795898 C25.7770898,20.4106055 25.5732422,20.3136914 25.355332,20.3136914 C25.1374219,20.3136914 24.9335742,20.4106055 24.7959961,20.5796484 L22.8067383,23.0237109 C22.6293164,23.2417383 22.594043,23.5348242 22.7147461,23.7886523 Z M25.355332,21.284707 L27.0128906,23.32125 L26.434043,23.32125 C26.1913477,23.32125 25.9945898,23.5180078 25.9945898,23.7607031 L25.9945898,26.9307422 L24.7161328,26.9307422 L24.7161328,23.7607031 C24.7161328,23.5180078 24.519375,23.32125 24.2766797,23.32125 L23.697832,23.32125 L25.355332,21.284707 Z" id="Shape"></path>
                        <path d="M17.3408789,13.2491016 L18.8091797,13.2491016 C19.2414844,13.2491016 19.5931641,12.8974219 19.5931641,12.4651172 L19.5931641,9.63960937 L20.0643164,9.63960937 C20.3453906,9.63960937 20.5949414,9.48193359 20.7156445,9.22810547 C20.8363477,8.97421875 20.8010742,8.68119141 20.6236523,8.46316406 L18.6343359,6.01904297 C18.4967578,5.85005859 18.2929102,5.75314453 18.075,5.75314453 C17.8570898,5.75314453 17.6532422,5.85005859 17.5156641,6.01910156 L15.5264062,8.46316406 C15.3489844,8.68119141 15.3137695,8.97427734 15.4344141,9.22810547 C15.5550586,9.48193359 15.804668,9.63960937 16.0857422,9.63960937 L16.5568945,9.63960937 L16.5568945,12.4651172 C16.5569531,12.8974219 16.9085742,13.2491016 17.3408789,13.2491016 Z M16.4175,8.76070312 L18.0750586,6.72416016 L19.7326172,8.76070312 L19.1537695,8.76070312 C18.9110742,8.76070312 18.7143164,8.95746094 18.7143164,9.20015625 L18.7143164,12.3701953 L17.4358594,12.3701953 L17.4358594,9.20015625 C17.4358594,8.95746094 17.2391016,8.76070312 16.9964062,8.76070312 L16.4175,8.76070312 Z" id="Shape"></path>
                        <path d="M29.5605469,30 C29.8032422,30 30,29.8032422 30,29.5605469 L30,16.1310352 C30,15.2650781 29.2955273,14.5605469 28.4295117,14.5605469 L22.7197266,14.5605469 L22.7197266,5.90484375 C22.7197266,5.66214844 22.5229688,5.46539062 22.2802734,5.46539062 C22.0375781,5.46539062 21.8408203,5.66214844 21.8408203,5.90484375 L21.8408203,14.5605469 L8.15917969,14.5605469 L8.15917969,1.57048828 C8.15917969,1.18916016 8.46943359,0.87890625 8.85076172,0.87890625 L21.1492969,0.87890625 C21.530625,0.87890625 21.8408789,1.18910156 21.8408789,1.57048828 L21.8408789,4.14708984 C21.8408789,4.38978516 22.0376367,4.58654297 22.280332,4.58654297 C22.5230273,4.58654297 22.7197852,4.38978516 22.7197852,4.14708984 L22.7197852,1.57048828 C22.7197266,0.70453125 22.0152539,0 21.1492969,0 L8.85076172,0 C7.98480469,0 7.28027344,0.70453125 7.28027344,1.57048828 L7.28027344,14.5605469 L1.57048828,14.5605469 C0.70453125,14.5605469 0,15.2650781 0,16.1310352 L0,24.4986328 C0,24.7413281 0.196757813,24.9380859 0.439453125,24.9380859 C0.682148437,24.9380859 0.87890625,24.7413281 0.87890625,24.4986328 L0.87890625,16.1310352 C0.87890625,15.749707 1.18916016,15.4394531 1.57048828,15.4394531 L14.5605469,15.4394531 L14.5605469,29.1210938 L0.87890625,29.1210938 L0.87890625,26.2564453 C0.87890625,26.01375 0.682148437,25.8169922 0.439453125,25.8169922 C0.196757813,25.8169922 0,26.01375 0,26.2564453 L0,29.5605469 C0,29.8032422 0.196757813,30 0.439453125,30 L29.5605469,30 Z M29.1210938,16.1310352 L29.1210938,29.1210938 L15.4394531,29.1210938 L15.4394531,15.4394531 L28.4295117,15.4394531 C28.8108398,15.4394531 29.1210938,15.749707 29.1210938,16.1310352 Z" id="Shape"></path>
                    </g>
                </g>
            </g>
        </g>
    </g>
</svg>