<?xml version="1.0" encoding="UTF-8"?>
<svg width="60px" height="60px" viewBox="0 0 60 60" version="1.1" xmlns="http://www.w3.org/2000/svg" xmlns:xlink="http://www.w3.org/1999/xlink">
    <!-- Generator: sketchtool 59 (101010) - https://sketch.com -->
    <title>15C4506D-6BDD-459B-989A-6D64B75419C3</title>
    <desc>Created with sketchtool.</desc>
    <g id="Page-1" stroke="none" stroke-width="1" fill="none" fill-rule="evenodd">
        <g id="03_liste_button" transform="translate(-233.000000, -505.000000)">
            <g id="operation" transform="translate(233.000000, 505.000000)">
                <circle id="Oval-Copy-3" fill="#F2F7FF" cx="30" cy="30" r="30"></circle>
                <g id="43940511416354821334533" transform="translate(15.000000, 15.000000)" fill-rule="nonzero">
                    <path d="M16.2961277,1.1796383 L19.0768723,3.54938298 C19.3969149,3.82214681 19.7948936,3.98698723 20.2140638,4.02044681 L23.8560638,4.31106383 C24.329617,4.34885745 24.7741915,4.55411489 25.1101277,4.89002553 C25.446,5.22593617 25.6512766,5.67051064 25.6890638,6.14406383 L25.9796809,9.78606383 C26.0131277,10.205234 26.178,10.6032128 26.4507447,10.9232553 L28.8204894,13.7042553 C29.1285957,14.0658511 29.2978723,14.5253617 29.2978723,15.000383 C29.2978723,15.4754043 29.1285957,15.9349149 28.8204894,16.2965106 L26.4510638,19.0770638 C26.1783191,19.3971064 26.0134468,19.7950851 25.98,20.2142553 L25.689383,23.8562553 C25.6515957,24.3298085 25.4463191,24.774383 25.1104468,25.1103191 C24.7745106,25.4461915 24.3299362,25.6514681 23.856383,25.6892553 L20.214383,25.9798723 C19.7952128,26.0133191 19.397234,26.1781915 19.0771915,26.4509362 L16.2964468,28.8206809 C15.9348511,29.1287872 15.4753404,29.2980638 15.0003191,29.2980638 C14.5252979,29.2980638 14.0657872,29.1287872 13.7041915,28.8206809 L10.9230638,26.4510638 C10.6030213,26.1783191 10.2050426,26.0134468 9.78587234,25.98 L6.14387234,25.689383 C5.67031915,25.6515957 5.22574468,25.4463191 4.88983404,25.1104468 C4.5539234,24.7745106 4.34867234,24.3299362 4.31087234,23.856383 L4.02025532,20.2142553 C3.98680213,19.7950851 3.82195532,19.3971064 3.54919149,19.0770638 L1.17951064,16.2962553 C0.871391489,15.9346596 0.702159574,15.4751489 0.702159574,15.0001277 C0.702159574,14.5251064 0.871391489,14.0655957 1.17951064,13.704 L3.54893617,10.9232553 C3.8217,10.6032128 3.98654681,10.205234 4.02,9.78606383 L4.31061702,6.14406383 C4.3484234,5.67044681 4.55372553,5.22587234 4.8897,4.8899234 C5.22568085,4.55401277 5.67031915,4.34878723 6.14393617,4.31106383 L9.78593617,4.02044681 C10.2051064,3.98698723 10.6030851,3.82214681 10.9231277,3.54938298 L13.7038723,1.1796383 C14.0654681,0.871519149 14.5249787,0.702280851 15,0.702280851 C15.4750213,0.702280851 15.9345319,0.871519149 16.2961277,1.1796383 L16.2961277,1.1796383 Z" id="Path" fill="#FD3730"></path>
                    <path d="M4.02025532,9.78606383 C3.98683404,10.205234 3.82198085,10.6032128 3.54919149,10.9232553 L1.17951064,13.7042553 C0.871391489,14.0658511 0.702159574,14.5253617 0.702159574,15.000383 C0.702159574,15.4754043 0.871391489,15.9349149 1.17951064,16.2965106 L3.54893617,19.0770638 C3.82172553,19.3971064 3.98657872,19.7950851 4.02,20.2142553 L4.31068085,23.8562553 C4.34846809,24.3298085 4.55371915,24.774383 4.88962979,25.1103191 C5.22555319,25.4461915 5.67012766,25.6514681 6.14368085,25.6892553 L9.78568085,25.9798723 C10.2048511,26.0133191 10.602766,26.1781915 10.9228085,26.4509362 L13.7035532,28.8206809 C14.0651489,29.1287872 14.5246596,29.2980638 14.9997447,29.2980638 C15.474766,29.2980638 15.9342766,29.1287872 16.2958723,28.8206809 L19.0769362,26.4510638 C19.3969787,26.1782553 19.7948936,26.0134468 20.2140638,25.98 L23.8560638,25.689383 C24.3296809,25.6519787 24.774383,25.4466383 25.1100638,25.1104468 L4.88987234,4.89 C4.55365532,5.22568085 4.34834681,5.67044681 4.31093617,6.14406383 L4.02025532,9.78606383 Z" id="Path" fill="#D3241F"></path>
                    <path d="M29.3387872,13.2621064 L26.9687872,10.4811702 C26.7885957,10.2704681 26.6800213,10.0080638 26.6586383,9.73168085 L26.367766,6.08974468 C26.3192553,5.45406383 26.0447872,4.85681489 25.5940213,4.40603617 C25.1432553,3.95525745 24.546,3.6807766 23.9103191,3.63229787 L20.268383,3.34174468 C19.9918085,3.32023404 19.7292128,3.21150638 19.518383,3.03121277 L16.7377021,0.661404255 C16.2539362,0.246197872 15.6375319,0.0179361702 15,0.0179361702 C14.3624681,0.0179361702 13.7460638,0.246197872 13.2622979,0.661404255 L10.4817447,3.03089362 C10.2709787,3.21128298 10.0083191,3.32006809 9.73174468,3.34155319 L6.08974468,3.63191489 C5.45406383,3.6804 4.85675106,3.95486809 4.40592766,4.40564043 C3.95509787,4.85640638 3.68055319,5.45368085 3.63197872,6.0893617 L3.34174468,9.73117021 C3.32013191,10.0077447 3.21128298,10.2702766 3.03089362,10.4809787 L0.661212766,13.2621064 C0.245961702,13.7458723 0.0176617021,14.3623404 0.0176617021,14.9999362 C0.0176617021,15.6374681 0.245961702,16.2539362 0.661212766,16.7377021 L3.03089362,19.5186383 C3.21117447,19.7293404 3.31990213,19.9918723 3.34142553,20.2683191 L3.63229787,23.9102553 C3.68071277,24.5459362 3.95515532,25.1433191 4.40594043,25.5941489 C4.85672553,26.0449787 5.45406383,26.3195106 6.08974468,26.3680213 L9.7313617,26.6582553 C10.008,26.6800213 10.2706596,26.7888511 10.4816809,26.9691064 L13.2622979,29.3387872 C13.746,29.7540638 14.3624681,29.982383 15,29.982383 C15.6375319,29.982383 16.254,29.7540638 16.7377021,29.3387872 L19.5186383,26.9691064 C19.7293404,26.7888511 19.9918723,26.6800851 20.2683191,26.6585745 L23.9102553,26.3677021 C24.5459362,26.3193191 25.1433191,26.0448511 25.5941489,25.5940851 C26.0449787,25.1432553 26.3195106,24.5459362 26.3680213,23.9102553 L26.6582553,20.2686383 C26.6800213,19.992 26.7888511,19.7293404 26.9691064,19.5183191 L29.3387872,16.737766 C29.7540638,16.254 29.982383,15.6375319 29.982383,14.9999362 C29.982383,14.3623404 29.7540638,13.7458723 29.3387872,13.2621064 L29.3387872,13.2621064 Z M28.3021277,15.8547447 L25.932766,18.6349787 C25.566,19.0635957 25.344766,19.5975319 25.3008511,20.1599362 L25.010617,23.8021277 C24.9867447,24.1147021 24.8517447,24.4083191 24.6300638,24.6299362 C24.408383,24.8515532 24.1147021,24.9864894 23.8021277,25.0102979 L20.1598723,25.3011702 C19.5977234,25.3448936 19.0640426,25.5659362 18.635617,25.9325106 L15.8547447,28.3021277 C15.6168511,28.5064468 15.3135957,28.6187872 15.0000638,28.6187872 C14.6864681,28.6187872 14.3832128,28.5064468 14.1453191,28.3021277 L11.3650851,25.932766 C10.9364681,25.566 10.4025319,25.344766 9.84012766,25.3008511 L6.19787234,25.010617 C5.88529787,24.9867447 5.59168085,24.8517447 5.37006383,24.6300638 C5.14844681,24.408383 5.01349787,24.1147021 4.98970213,23.8021277 L4.69882979,20.1598723 C4.6551383,19.5977234 4.43407021,19.0639787 4.06748936,18.635617 L1.69787234,15.8547447 C1.49355319,15.6168511 1.38120638,15.3136596 1.38120638,15.0000638 C1.38120638,14.6865319 1.49355319,14.3833404 1.69787234,14.1454468 L4.06723404,11.3648936 C4.434,10.9363404 4.65525957,10.4024681 4.69914894,9.84012766 L4.98938298,6.19787234 C5.0133383,5.8853617 5.14838298,5.59168085 5.37,5.37006383 C5.59168085,5.14838298 5.8853617,5.01342766 6.19787234,4.98951064 L9.83980851,4.69895745 C10.4021489,4.65516383 10.9359574,4.43388511 11.364383,4.06704255 L14.1452553,1.69787234 C14.3832128,1.49371277 14.6864043,1.38147447 15,1.38147447 C15.3135319,1.38147447 15.6167234,1.49371277 15.8546809,1.69787234 L18.6352979,4.06774468 C19.0637872,4.4343766 19.5976596,4.65548936 20.1598723,4.69921277 L23.8021277,4.98951064 C24.1146383,5.01338298 24.4083191,5.14838298 24.6299362,5.37 C24.8515532,5.59168085 24.9864894,5.8853617 25.0102979,6.19787234 L25.3011702,9.84 C25.3448298,10.4022128 25.5658723,10.9360213 25.9325106,11.3644468 L28.3021277,14.1454468 C28.5064468,14.3833404 28.6187872,14.6865319 28.6187872,15.0000638 C28.6187872,15.3136596 28.5064468,15.6168511 28.3021277,15.8547447 Z" id="Shape" fill="#000000"></path>
                    <path d="M12.9574468,11.5957654 L11.2552979,11.5957654 C11.0747234,11.5957654 10.9015532,11.6675106 10.7738298,11.7951702 C10.6461702,11.9228936 10.5744255,12.0960638 10.5744255,12.2766383 L10.5744255,17.7234255 C10.5761489,17.9028511 10.6486596,18.0743617 10.7761277,18.200617 C10.9036596,18.3268723 11.0758085,18.3977234 11.2552979,18.3977234 C11.4347234,18.3977234 11.6068723,18.3268723 11.7344043,18.200617 C11.8618723,18.0743617 11.934383,17.9028511 11.9361064,17.7234255 L11.9361064,16.0340426 L13.806766,18.1720213 C13.8654894,18.2398723 13.9370426,18.2954043 14.0173404,18.3355532 C14.0976383,18.3756383 14.1850213,18.3994468 14.2745106,18.4056383 C14.3640638,18.4118298 14.4539362,18.4002766 14.5389574,18.371617 C14.6239787,18.3430213 14.7025532,18.2978298 14.7700213,18.2387234 C14.8375532,18.179617 14.8927021,18.1077447 14.9324043,18.0272553 C14.9720426,17.946766 14.9953404,17.8591915 15.0010851,17.7696383 C15.006766,17.6800851 14.9947021,17.5902766 14.9655957,17.5054468 C14.9364255,17.4205532 14.8908511,17.3422979 14.8313617,17.2750851 L13.3951915,15.633766 C13.8874468,15.5261489 14.3225745,15.2404468 14.6168936,14.8314255 C14.9112128,14.4224681 15.0440426,13.9191064 14.9897234,13.4181702 C14.9354043,12.917234 14.6978298,12.4540213 14.3227021,12.1176383 C13.9475745,11.7812553 13.4613191,11.595383 12.9574468,11.5957654 L12.9574468,11.5957654 Z M12.9574468,14.3191915 L11.9361702,14.3191915 L11.9361702,12.9574468 L12.9574468,12.9574468 C13.047383,12.9565532 13.1366809,12.9735319 13.2200426,13.0073617 C13.3034043,13.0411915 13.379234,13.091234 13.4431277,13.1544894 C13.5070851,13.2178085 13.5578298,13.2931915 13.5924255,13.376234 C13.6270851,13.4592128 13.6448936,13.5483191 13.6448936,13.6382553 C13.6448936,13.7282553 13.6270851,13.8173617 13.5924255,13.9003404 C13.5578298,13.983383 13.5070851,14.058766 13.4431277,14.1220851 C13.379234,14.1853404 13.3034043,14.235383 13.2200426,14.2692128 C13.1366809,14.3030426 13.047383,14.3200213 12.9574468,14.3191277 L12.9574468,14.3191915 Z" id="Shape" fill="#000000"></path>
                    <path d="M18.7447021,12.9574468 C18.9241277,12.9557234 19.0956383,12.8832128 19.2218936,12.7557447 C19.3481489,12.6282128 19.419,12.4560638 19.419,12.2765745 C19.419,12.0971489 19.3481489,11.925 19.2218936,11.7974681 C19.0956383,11.67 18.9241277,11.5974894 18.7447021,11.595766 L16.3616809,11.595766 C16.1811064,11.595766 16.0079362,11.6675106 15.8802128,11.7951702 C15.7525532,11.9228936 15.6808085,12.0960638 15.6808085,12.2766383 L15.6808085,17.7234255 C15.6808085,17.904 15.7525532,18.0771702 15.8802128,18.2048936 C16.0079362,18.3325532 16.1811064,18.4042979 16.3616809,18.4042979 L18.7446383,18.4042979 C18.9240638,18.4025745 19.0955745,18.3300638 19.2218298,18.2025957 C19.3480851,18.0750638 19.4189362,17.9029149 19.4189362,17.7234255 C19.4189362,17.544 19.3480851,17.3718511 19.2218298,17.2443191 C19.0955745,17.1168511 18.9240638,17.0443404 18.7446383,17.042617 L17.0425532,17.042617 L17.0425532,15.6808723 L18.404234,15.6808723 C18.4941702,15.681766 18.5834681,15.6647872 18.6668298,15.6309574 C18.7501915,15.5971277 18.8260213,15.5470851 18.8899149,15.4838298 C18.9538723,15.4205106 19.004617,15.3451277 19.0392128,15.2620851 C19.0738723,15.1790426 19.0916809,15.09 19.0916809,15 C19.0916809,14.9100638 19.0738723,14.8209574 19.0392128,14.7379787 C19.004617,14.6549362 18.9538723,14.5795532 18.8899149,14.516234 C18.8260213,14.4529787 18.7501915,14.4029362 18.6668298,14.3691064 C18.5834681,14.3352766 18.4941702,14.3182979 18.404234,14.3191915 L17.0425532,14.3191915 L17.0425532,12.9574468 L18.7447021,12.9574468 Z" id="Path" fill="#000000"></path>
                    <path d="M9.21274468,11.5957324 L6.82978723,11.5957324 C6.64921277,11.5957324 6.47604255,11.6675106 6.34831915,11.7951702 C6.22065957,11.9228936 6.14891489,12.0960638 6.14891489,12.2766383 L6.14891489,17.7234255 C6.1506383,17.9028511 6.22314894,18.0743617 6.35061702,18.200617 C6.47814894,18.3268723 6.65029787,18.3977234 6.82978723,18.3977234 C7.00921277,18.3977234 7.1813617,18.3268723 7.30889362,18.200617 C7.4363617,18.0743617 7.50887234,17.9028511 7.51059574,17.7234255 L7.51059574,15.6808723 L8.87234043,15.6808723 C9.05176596,15.6791489 9.2232766,15.6066383 9.34953191,15.4791702 C9.47578723,15.3516383 9.5466383,15.1794894 9.5466383,15 C9.5466383,14.8205745 9.47578723,14.6484255 9.34953191,14.5208936 C9.2232766,14.3934255 9.05176596,14.3209149 8.87234043,14.3191915 L7.51065957,14.3191915 L7.51065957,12.9574468 L9.21280851,12.9574468 C9.30274468,12.9583404 9.39204255,12.9413617 9.47540426,12.9075319 C9.55876596,12.8737021 9.63459574,12.8236596 9.69848936,12.7604043 C9.76244681,12.6970851 9.81319149,12.6217021 9.84778723,12.5386596 C9.88244681,12.4556809 9.90025532,12.3665745 9.90025532,12.2765745 C9.90025532,12.1866383 9.88244681,12.0975319 9.84778723,12.0145532 C9.81319149,11.9315106 9.76244681,11.8561277 9.69848936,11.7928085 C9.63459574,11.7295532 9.55876596,11.6795106 9.47540426,11.6456809 C9.39204255,11.6118511 9.30274468,11.5948723 9.21280851,11.5957324 L9.21274468,11.5957324 Z" id="Path" fill="#000000"></path>
                    <path d="M23.1702128,12.9574468 C23.2601489,12.9583404 23.3494468,12.9413617 23.4328085,12.9075319 C23.5161702,12.8737021 23.592,12.8236596 23.6558936,12.7604043 C23.7198511,12.6970851 23.7705957,12.6217021 23.8051915,12.5386596 C23.8398511,12.4556809 23.8576596,12.3665745 23.8576596,12.2765745 C23.8576596,12.1866383 23.8398511,12.0975319 23.8051915,12.0145532 C23.7705957,11.9315106 23.7198511,11.8561277 23.6558936,11.7928085 C23.592,11.7295532 23.5161702,11.6795106 23.4328085,11.6456809 C23.3494468,11.6118511 23.2601489,11.5948723 23.1702128,11.5957324 L20.7872553,11.5957324 C20.6066809,11.5957324 20.4335106,11.6675106 20.3058511,11.7951702 C20.1781277,11.9228298 20.106383,12.096 20.106383,12.2765745 L20.106383,17.7233617 C20.106383,17.9039362 20.1781277,18.0771064 20.3057872,18.2048298 C20.4335106,18.3324894 20.6066809,18.4042676 20.7872553,18.4042676 L23.1702128,18.4042676 C23.2601489,18.4051277 23.3494468,18.3881489 23.4328085,18.3543191 C23.5161702,18.3204894 23.592,18.2704468 23.6558936,18.2071915 C23.7198511,18.1438723 23.7705957,18.0684894 23.8051915,17.9854468 C23.8398511,17.9024681 23.8576596,17.8133617 23.8576596,17.7234255 C23.8576596,17.6334255 23.8398511,17.5443191 23.8051915,17.4613404 C23.7705957,17.3782979 23.7198511,17.3029149 23.6558936,17.2395957 C23.592,17.1763404 23.5161702,17.1262979 23.4328085,17.0924681 C23.3494468,17.0586383 23.2601489,17.0416596 23.1702128,17.0425532 L21.4680638,17.0425532 L21.4680638,15.6808723 L22.8297447,15.6808723 C23.0091702,15.6791489 23.1806809,15.6066383 23.3069362,15.4791702 C23.4331915,15.3516383 23.5040426,15.1794894 23.5040426,15 C23.5040426,14.8205745 23.4331915,14.6484255 23.3069362,14.5208936 C23.1806809,14.3934255 23.0091702,14.3209149 22.8297447,14.3191915 L21.4680638,14.3191915 L21.4680638,12.9574468 L23.1702128,12.9574468 Z" id="Path" fill="#000000"></path>
                </g>
            </g>
        </g>
    </g>
</svg>