<?xml version="1.0" encoding="UTF-8"?><svg version="1.1" width="138px" height="138px" viewBox="0 0 138.0 138.0" xmlns="http://www.w3.org/2000/svg" xmlns:xlink="http://www.w3.org/1999/xlink"><defs><clipPath id="i0"><path d="M360,0 L360,670 L0,670 L0,0 L360,0 Z"></path></clipPath><clipPath id="i1"><path d="M69,0 C107.107648,0 138,30.8923523 138,69 C138,107.107648 107.107648,138 69,138 C30.8923523,138 0,107.107648 0,69 C0,30.8923523 30.8923523,0 69,0 Z"></path></clipPath><clipPath id="i2"><path d="M26.440678,0 L52.8813559,6.10169492 L52.8813559,57.9661017 L0,57.9661017 L0,6.10169492 L26.440678,0 Z"></path></clipPath><clipPath id="i3"><path d="M36.6101695,0 L36.6101695,40.6779661 L0,40.6779661 L0,0 L36.6101695,0 Z"></path></clipPath><clipPath id="i4"><path d="M26.440678,0 L52.8813559,6.10169492 L52.8813559,10.5088983 L26.440678,4.12627119 L0,10.5088983 L0,6.10169492 L26.440678,0 Z"></path></clipPath><clipPath id="i5"><path d="M6.10169492,0 C7.22498593,-2.42679126e-15 8.13559322,0.910607288 8.13559322,2.03389831 C8.13559322,3.15718932 7.22498593,4.06779661 6.10169492,4.06779661 L2.03389831,4.06779661 C0.910607288,4.06779661 1.37563475e-16,3.15718932 0,2.03389831 C-1.37563475e-16,0.910607288 0.910607288,2.06345212e-16 2.03389831,0 L6.10169492,0 Z"></path></clipPath><clipPath id="i6"><path d="M29.4915254,0 L58.9830508,7.11864407 L58.9830508,11.1864407 L29.4915254,4.06779661 L0,11.1864407 L0,7.11864407 L29.4915254,0 Z"></path></clipPath><clipPath id="i7"><path d="M36.6101695,0 L36.6101695,17.2881356 L0,17.2881356 L0,0 L36.6101695,0 Z"></path></clipPath><clipPath id="i8"><path d="M36.6101695,0 L36.6101695,2.03389831 L0,2.03389831 L0,0 L36.6101695,0 Z"></path></clipPath><clipPath id="i9"><path d="M36.6101695,0 L36.6101695,2.03389831 L0,2.03389831 L0,0 L36.6101695,0 Z"></path></clipPath><clipPath id="i10"><path d="M36.6101695,0 L36.6101695,2.03389831 L0,2.03389831 L0,0 L36.6101695,0 Z"></path></clipPath><clipPath id="i11"><path d="M36.6101695,0 L36.6101695,2.03389831 L0,2.03389831 L0,0 L36.6101695,0 Z"></path></clipPath><clipPath id="i12"><path d="M18.3050847,0 L18.3050847,16.2711864 L36.6101695,16.2711864 L36.6101695,32.5423729 L0,32.5423729 L0,0 L18.3050847,0 Z"></path></clipPath><clipPath id="i13"><path d="M6.10169492,0 L6.10169492,6.10169492 L0,6.10169492 L0,0 L6.10169492,0 Z"></path></clipPath><clipPath id="i14"><path d="M17.2881356,0 L17.2881356,15.2542373 L0,15.2542373 L0,13.7288136 C0,12.8863453 0.682955466,12.2033898 1.52542373,12.2033898 L6.1404661,12.2033898 C10.612072,12.2030389 14.2369372,8.57817374 14.2372881,4.1065678 L14.2372881,1.52542373 C14.2372881,0.682955466 14.9202436,0 15.7627119,0 L17.2881356,0 Z"></path></clipPath><clipPath id="i15"><path d="M2.03389831,0 L2.03389831,2.03389831 L0,2.03389831 L0,0 L2.03389831,0 Z"></path></clipPath><clipPath id="i16"><path d="M6.10169492,0 L6.10169492,6.10169492 L0,6.10169492 L0,0 L6.10169492,0 Z"></path></clipPath><clipPath id="i17"><path d="M17.2881356,0 L17.2881356,15.2542373 L0,15.2542373 L0,13.7288136 C0,12.8863453 0.682955466,12.2033898 1.52542373,12.2033898 L6.1404661,12.2033898 C10.612072,12.2030389 14.2369372,8.57817374 14.2372881,4.1065678 L14.2372881,1.52542373 C14.2372881,0.682955466 14.9202436,0 15.7627119,0 L17.2881356,0 Z"></path></clipPath><clipPath id="i18"><path d="M2.03389831,0 L2.03389831,2.03389831 L0,2.03389831 L0,0 L2.03389831,0 Z"></path></clipPath><clipPath id="i19"><path d="M6.10169492,0 L6.10169492,6.10169492 L0,6.10169492 L0,0 L6.10169492,0 Z"></path></clipPath><clipPath id="i20"><path d="M17.2881356,0 L17.2881356,15.2542373 L0,15.2542373 L0,13.7288136 C0,12.8863453 0.682955466,12.2033898 1.52542373,12.2033898 L6.1404661,12.2033898 C10.612072,12.2030389 14.2369372,8.57817374 14.2372881,4.1065678 L14.2372881,1.52542373 C14.2372881,0.682955466 14.9202436,0 15.7627119,0 L17.2881356,0 Z"></path></clipPath><clipPath id="i21"><path d="M2.03389831,0 L2.03389831,2.03389831 L0,2.03389831 L0,0 L2.03389831,0 Z"></path></clipPath></defs><g transform="translate(-111.0 -123.0)"><g clip-path="url(#i0)"><g transform="translate(111.0 123.0)"><g clip-path="url(#i1)"><polygon points="0,0 138,0 138,138 0,138 0,0" stroke="none" fill="#F2F7FF"></polygon></g><g transform="translate(39.99999999999993 39.0)"><g transform="translate(3.0508474576272633 2.033898305084236)"><g clip-path="url(#i2)"><polygon points="0,0 52.8813559,0 52.8813559,57.9661017 0,57.9661017 0,0" stroke="none" fill="#1BABD5"></polygon></g></g><g transform="translate(11.186440677966022 19.32203389830479)"><g clip-path="url(#i3)"><polygon points="0,0 36.6101695,0 36.6101695,40.6779661 0,40.6779661 0,0" stroke="none" fill="#E3E3E2"></polygon></g></g><g transform="translate(3.0508474576272633 2.033898305084236)"><g clip-path="url(#i4)"><polygon points="0,0 52.8813559,0 52.8813559,10.5088983 0,10.5088983 0,0" stroke="none" fill="#0883A9"></polygon></g></g><g transform="translate(33.559322033898354 14.23728813559252) rotate(-180.0)"><g clip-path="url(#i5)"><polygon points="0,0 8.13559322,0 8.13559322,4.06779661 0,4.06779661 0,0" stroke="none" fill="#0884A9"></polygon></g></g><g clip-path="url(#i6)"><polygon points="0,0 58.9830508,0 58.9830508,11.1864407 0,11.1864407 0,0" stroke="none" fill="#E3E3E2"></polygon></g><g transform="translate(11.186440677966022 19.32203389830479)"><g clip-path="url(#i7)"><polygon points="0,0 36.6101695,0 36.6101695,17.2881356 0,17.2881356 0,0" stroke="none" fill="#C9C9C8"></polygon></g></g><g transform="translate(11.186440677966022 22.37288135593205)"><g clip-path="url(#i8)"><polygon points="0,0 36.6101695,0 36.6101695,2.03389831 0,2.03389831 0,0" stroke="none" fill="#B2B1B3"></polygon></g><g transform="translate(0.0 4.067796610169521)"><g clip-path="url(#i9)"><polygon points="0,0 36.6101695,0 36.6101695,2.03389831 0,2.03389831 0,0" stroke="none" fill="#B2B1B3"></polygon></g></g><g transform="translate(0.0 8.13559322033904)"><g clip-path="url(#i10)"><polygon points="0,0 36.6101695,0 36.6101695,2.03389831 0,2.03389831 0,0" stroke="none" fill="#B2B1B3"></polygon></g></g><g transform="translate(0.0 12.20338983050856)"><g clip-path="url(#i11)"><polygon points="0,0 36.6101695,0 36.6101695,2.03389831 0,2.03389831 0,0" stroke="none" fill="#B2B1B3"></polygon></g></g></g><g transform="translate(0.0 27.45762711864355)"><g clip-path="url(#i12)"><polygon points="0,0 36.6101695,0 36.6101695,32.5423729 0,32.5423729 0,0" stroke="none" fill="#F8BC1D"></polygon></g></g><g transform="translate(24.406779661017175 43.72881355932289)"><g clip-path="url(#i13)"><polygon points="0,0 6.10169492,0 6.10169492,6.10169492 0,6.10169492 0,0" stroke="none" fill="#F9DA61"></polygon></g></g><g transform="translate(19.32203389830524 44.74576271186411)"><g clip-path="url(#i14)"><polygon points="0,0 17.2881356,0 17.2881356,15.2542373 0,15.2542373 0,0" stroke="none" fill="#F5A921"></polygon></g></g><g transform="translate(31.525423728813827 54.91525423728893)"><g clip-path="url(#i15)"><polygon points="0,0 2.03389831,0 2.03389831,2.03389831 0,2.03389831 0,0" stroke="none" fill="#F79726"></polygon></g></g><g transform="translate(6.10169491525407 43.72881355932289)"><g clip-path="url(#i16)"><polygon points="0,0 6.10169492,0 6.10169492,6.10169492 0,6.10169492 0,0" stroke="none" fill="#F9DA61"></polygon></g></g><g transform="translate(1.0169491525425727 44.74576271186411)"><g clip-path="url(#i17)"><polygon points="0,0 17.2881356,0 17.2881356,15.2542373 0,15.2542373 0,0" stroke="none" fill="#F5A921"></polygon></g></g><g transform="translate(13.22033898305071 54.91525423728893)"><g clip-path="url(#i18)"><polygon points="0,0 2.03389831,0 2.03389831,2.03389831 0,2.03389831 0,0" stroke="none" fill="#F79726"></polygon></g></g><g transform="translate(6.10169491525407 27.45762711864355)"><g clip-path="url(#i19)"><polygon points="0,0 6.10169492,0 6.10169492,6.10169492 0,6.10169492 0,0" stroke="none" fill="#F9DA61"></polygon></g></g><g transform="translate(1.0169491525425727 28.474576271186585)"><g clip-path="url(#i20)"><polygon points="0,0 17.2881356,0 17.2881356,15.2542373 0,15.2542373 0,0" stroke="none" fill="#F5A921"></polygon></g></g><g transform="translate(13.22033898305071 38.64406779660958)"><g clip-path="url(#i21)"><polygon points="0,0 2.03389831,0 2.03389831,2.03389831 0,2.03389831 0,0" stroke="none" fill="#F79726"></polygon></g></g></g></g></g></g></svg>