<?xml version="1.0" encoding="UTF-8"?>
<svg width="60px" height="60px" viewBox="0 0 60 60" version="1.1" xmlns="http://www.w3.org/2000/svg" xmlns:xlink="http://www.w3.org/1999/xlink">
    <title>EC4931B4-A5C2-4FA8-8097-2E4748FA3B3F</title>
    <g id="Page-1" stroke="none" stroke-width="1" fill="none" fill-rule="evenodd">
        <g id="03_dashboard" transform="translate(-68.000000, -375.000000)">
            <g id="wallet" transform="translate(68.000000, 375.000000)">
                <circle id="Oval-Copy" fill="#F2F7FF" cx="30" cy="30" r="30"></circle>
                <g transform="translate(15.000000, 15.000000)" fill-rule="nonzero">
                    <path d="M25.6133228,3.97818614 C25.5391168,3.65486854 25.3391751,3.37442882 25.0577095,3.19887853 C24.7762438,3.02332824 24.4364426,2.96713 24.1134436,3.0427105 L21.5159396,3.65388792 L20.3621863,1.31208058 C20.2154141,1.01557565 19.956855,0.789529487 19.6434013,0.683680384 C19.3299476,0.577831281 18.9872819,0.600851926 18.6908032,0.747676948 L6.23650422,6.92493438 L26.3118113,6.92493438 L25.6133228,3.97818614 Z" id="Path" fill="#F7B333"></path>
                    <rect id="Rectangle" fill="#B27114" x="0.623650422" y="6.92493438" width="28.064269" height="22.4514152" rx="2"></rect>
                    <rect id="Rectangle" fill="#FF9500" x="18.3976875" y="13.785089" width="11.2257076" height="8.73110591" rx="1"></rect>
                    <path d="M18.5411271,4.99161807 L24.2568832,3.65700617 C24.5907987,3.57892287 24.9251116,3.78508251 25.0052637,4.11850748 L25.2734334,5.27226076 C25.365181,5.59168808 25.6912999,5.78305139 26.0149056,5.70734928 C26.3385113,5.63164718 26.5459015,5.3154784 26.4864334,4.98849982 L26.2182637,3.83474654 C26.1055465,3.3512593 25.8052916,2.93239338 25.3836121,2.67037898 C24.9619327,2.40836457 24.4534058,2.32468641 23.970004,2.43776959 L18.2542479,3.77549975 C18.0370092,3.82674578 17.8636119,3.98999449 17.799373,4.20375166 C17.735134,4.41750884 17.7898129,4.64929968 17.9428126,4.81181083 C18.0958122,4.97432197 18.3238884,5.0428641 18.5411271,4.99161807 L18.5411271,4.99161807 Z" id="Path" fill="#000000"></path>
                    <path d="M1.24730084,21.4029789 L1.24730084,8.79588565 C1.24730084,8.10702041 1.80573645,7.5485848 2.49460169,7.5485848 L20.9390629,7.5485848 C21.2834955,7.5485848 21.5627133,7.269367 21.5627133,6.92493438 C21.5627133,6.58050176 21.2834955,6.30128396 20.9390629,6.30128396 L12.9313915,6.30128396 L16.8011424,5.39699085 C17.1272569,5.31262344 17.3274425,4.98453775 17.2532992,4.65594791 C17.1791558,4.32735808 16.8574809,4.11702554 16.5267362,4.18087252 L10.1842114,5.66204228 L18.9683276,1.31208058 C19.2766069,1.15898462 19.6506304,1.28458953 19.8040192,1.59272327 L20.1158444,2.23196495 C20.2682558,2.5410932 20.6424077,2.66813728 20.9515359,2.51572586 C21.2606642,2.36331443 21.3877083,1.9891626 21.2352969,1.68003433 L20.9234717,1.03767439 C20.4657585,0.118090506 19.3522462,-0.260503687 18.42887,0.189509821 L6.08059162,6.30128396 L2.49460169,6.30128396 C1.11687122,6.30128396 0,7.41815518 0,8.79588565 L0,21.4029789 C0,21.7474115 0.279217805,22.0266294 0.623650422,22.0266294 C0.96808304,22.0266294 1.24730084,21.7474115 1.24730084,21.4029789 Z" id="Path" fill="#000000"></path>
                    <path d="M24.5149806,28.7526992 L2.49460169,28.7526992 C1.80573645,28.7526992 1.24730084,28.1942635 1.24730084,27.5053983 L1.24730084,13.8570433 C1.24730084,13.5126107 0,13.5126107 0,13.8570433 L0,27.5053983 C0,28.8831288 1.11687122,30 2.49460169,30 L24.5149806,30 C24.8594133,30 25.1386311,29.7207822 25.1386311,29.3763496 C25.1386311,29.031917 24.8594133,28.7526992 24.5149806,28.7526992 Z" id="Path" fill="#000000"></path>
                    <path d="M28.064269,24.3466089 L28.064269,27.5053983 C28.064269,28.1942635 27.5058334,28.7526992 26.8169682,28.7526992 L22.5823818,28.7526992 C22.2379492,28.7526992 21.9587314,29.031917 21.9587314,29.3763496 C21.9587314,29.7207822 22.2379492,30 22.5823818,30 L26.8169682,30 C28.1946986,30 29.3115698,28.8831288 29.3115698,27.5053983 L29.3115698,24.3466089 C29.3115698,24.0021763 29.032352,23.7229585 28.6879194,23.7229585 C28.3434868,23.7229585 28.064269,24.0021763 28.064269,24.3466089 Z" id="Path" fill="#000000"></path>
                    <path d="M29.3115698,13.414017 L29.3115698,8.79588565 C29.3115698,7.41815518 28.1946986,6.30128396 26.8169682,6.30128396 L23.2465695,6.30128396 C22.9021369,6.30128396 22.6229191,6.58050176 22.6229191,6.92493438 C22.6229191,7.269367 22.9021369,7.5485848 23.2465695,7.5485848 L26.8169682,7.5485848 C27.5058334,7.5485848 28.064269,8.10702041 28.064269,8.79588565 L28.064269,13.1614386 L19.6449883,13.1614386 C18.6116904,13.1614386 17.774037,13.999092 17.774037,15.0323899 C17.774037,15.3768225 18.0532548,15.6560403 18.3976875,15.6560403 C18.7421201,15.6560403 19.0213379,15.3768225 19.0213379,15.0323899 C19.0213379,14.6879573 19.3005557,14.4087394 19.6449883,14.4087394 L28.3760942,14.4087394 C28.7205268,14.4087394 28.9997446,14.6879573 28.9997446,15.0323899 L28.9997446,18.150642 C28.9997446,18.4950746 29.2789624,18.7742924 29.6233951,18.7742924 C29.9678277,18.7742924 30.2470455,18.4950746 30.2470455,18.150642 L30.2470455,15.0323899 C30.2463606,14.3646489 29.889851,13.7478873 29.3115698,13.414017 Z" id="Path" fill="#000000"></path>
                    <path d="M28.9997446,20.0215932 L28.9997446,21.2688941 C28.9997446,21.6133267 28.7205268,21.8925445 28.3760942,21.8925445 L19.6449883,21.8925445 C19.3005557,21.8925445 19.0213379,21.6133267 19.0213379,21.2688941 L19.0213379,17.2525854 C19.0213379,16.9081528 18.7421201,16.6289349 18.3976875,16.6289349 C18.0532548,16.6289349 17.774037,16.9081528 17.774037,17.2525854 L17.774037,21.2688941 C17.774037,22.3021919 18.6116904,23.1398454 19.6449883,23.1398454 L28.3760942,23.1398454 C29.4093921,23.1398454 30.2470455,22.3021919 30.2470455,21.2688941 L30.2470455,20.0215932 C30.2470455,19.6771606 29.9678277,19.3979428 29.6233951,19.3979428 C29.2789624,19.3979428 28.9997446,19.6771606 28.9997446,20.0215932 Z" id="Path" fill="#000000"></path>
                    <circle id="Oval" fill="#000000" cx="22.3110939" cy="18.150642" r="1.55912606"></circle>
                </g>
            </g>
        </g>
    </g>
</svg>